<svg xmlns="http://www.w3.org/2000/svg" xmlns:xlink="http://www.w3.org/1999/xlink" version="1.1" width="30" height="30" viewBox="0 0 30 30">
<defs>
<clipPath id="clip_0">
<path transform="matrix(.24,0,0,.24,0,0)" d="M0 0H125V125H0Z" fill-rule="evenodd"/>
</clipPath>
<clipPath id="clip_1">
<path transform="matrix(.24,0,0,.24,0,0)" d="M0 0H125V125H0Z" fill-rule="evenodd"/>
</clipPath>
<clipPath id="clip_2">
<path transform="matrix(.24,0,0,.24,0,0)" d="M12.5 59.172204H115.585887V125H12.5Z" fill-rule="evenodd"/>
</clipPath>
<clipPath id="clip_3">
<path transform="matrix(.24,0,0,.24,0,0)" d="M0 0H125V125H0Z" fill-rule="evenodd"/>
</clipPath>
<clipPath id="clip_4">
<path transform="matrix(.24,0,0,.24,5.52,0)" d="M0 0H83V93H0Z" fill-rule="evenodd"/>
</clipPath>
<clipPath id="clip_5">
<path transform="matrix(.24,0,0,.24,5.52,0)" d="M.7039547-.000000000000020632937H82.01113V92.196529H.7039547Z" fill-rule="evenodd"/>
</clipPath>
<clipPath id="clip_6">
<path transform="matrix(.24,0,0,.24,5.52,0)" d="M17.540677 71.7229H69.595829V92.196529H17.540677Z" fill-rule="evenodd"/>
</clipPath>
<clipPath id="clip_7">
<path transform="matrix(.24,0,0,.24,5.52,0)" d="M.7039547-.000000000000020632937H82.01113V92.196529H.7039547Z" fill-rule="evenodd"/>
</clipPath>
<clipPath id="clip_8">
<path transform="matrix(.24,0,0,.24,5.52,0)" d="M79.1792 40.86032H81.988529V43.251085H79.1792Z" fill-rule="evenodd"/>
</clipPath>
<clipPath id="clip_9">
<path transform="matrix(.24,0,0,.24,5.52,0)" d="M.7039547-.000000000000020632937H82.01113V92.196529H.7039547Z" fill-rule="evenodd"/>
</clipPath>
</defs>
<g>
<g clip-path="url(#clip_0)">
<path transform="matrix(.75,0,0,.75,0,0)" d="M0 0H40V40H0Z" fill="#ffffff"/>
</g>
<g clip-path="url(#clip_1)">
<path transform="matrix(.75,0,0,.75,0,0)" d="M0 0H40V40H0Z" fill="#ffffff"/>
</g>
<g clip-path="url(#clip_2)">
<path transform="matrix(.049481226,0,0,.049829686,3,14.203366)" d="M250 315.64 2.5 312.56V43.04H250V315.64Z" fill="#50793d"/>
<path transform="matrix(.049481226,0,0,.049829686,3,14.203366)" d="M250 318.14C249.99 318.14 249.98 318.14 249.97 318.14L2.4700013 315.06004C1.1 315.04 0 313.93 0 312.56V43.04C0 41.66 1.12 40.54 2.5 40.54H250C251.38 40.54 252.5 41.66 252.5 43.04V315.64C252.5 316.31004 252.23 316.95 251.76 317.42 251.29 317.88 250.66 318.14 250 318.14ZM5.01 310.08 247.5 313.09999V45.54H5.01V310.08Z" fill="#49423c"/>
<path transform="matrix(.049481226,0,0,.049829686,3,14.203366)" d="M250 315.64 497.5 312.56V43.04H250V315.64Z" fill="#50793d"/>
<path transform="matrix(.049481226,0,0,.049829686,3,14.203366)" d="M250 318.14C249.34 318.14 248.71 317.88 248.24 317.42 247.77 316.95 247.5 316.31004 247.5 315.64V43.04C247.5 41.66 248.62 40.54 250 40.54H497.5C498.88 40.54 500 41.66 500 43.04V312.56C500 313.93 498.9 315.05 497.53 315.06L250.04 318.13999C250.02 318.14 250.01 318.14 250 318.14ZM252.51 45.54V313.1L495 310.08003V45.54H252.51Z" fill="#49423c"/>
<path transform="matrix(.049481226,0,0,.049829686,3,14.203366)" d="M250 315.64C250 315.64 189.73 295.78004 137.32 295.78004 84.91002 295.78004 24.640007 295.78004 24.640007 295.78004V22.85C24.640007 22.85 57.080007 22.85 129.39002 22.85 201.70003 22.85 250 42.71 250 42.71V315.64Z" fill="#e6e6e6"/>
<path transform="matrix(.049481226,0,0,.049829686,3,14.203366)" d="M250 318.14C249.74 318.14 249.47 318.1 249.22 318.01 248.62 317.81 188.71 298.28 137.32 298.28H24.63C23.25 298.28 22.13 297.16 22.13 295.78V22.85C22.13 21.470002 23.25 20.35 24.63 20.35H129.38C201.35 20.35 250.46 40.2 250.95001 40.4 251.89002 40.79 252.50002 41.7 252.50002 42.72V315.64C252.50002 316.44 252.11002 317.2 251.46002 317.67 251.04 317.98 250.52 318.14 250 318.14ZM27.13 293.27H137.31C182.55 293.27 234.14 308.12998 247.48999 312.22V44.43C238.68 41.13 193.19998 25.36 129.37999 25.36H27.13V293.27Z" fill="#49423c"/>
<path transform="matrix(.049481226,0,0,.049829686,3,14.203366)" d="M250 315.64C250 315.64 310.27 295.78004 362.68 295.78004 415.09 295.78004 475.36 295.78004 475.36 295.78004V22.85C475.36 22.85 442.91999 22.85 370.61 22.85 298.3 22.85 250 42.71 250 42.71V315.64Z" fill="#e6e6e6"/>
<path transform="matrix(.049481226,0,0,.049829686,3,14.203366)" d="M250 318.14C249.48 318.14 248.97 317.98 248.53 317.66 247.88 317.19 247.49 316.43 247.49 315.63V42.71C247.49 41.7 248.1 40.78 249.04001 40.39 249.53002 40.19 298.63 20.34 370.61003 20.34H475.36003C476.74003 20.34 477.86003 21.460001 477.86003 22.84V295.76C477.86003 297.14 476.74003 298.26 475.36003 298.26H362.68C311.27 298.26 251.37999 317.80003 250.78 317.99003 250.53 318.1 250.27 318.14 250 318.14ZM252.51 44.43V312.22999C265.86 308.13999 317.45 293.27998 362.69 293.27998H472.87V25.36H370.62C306.79 25.36 261.31 41.13 252.51 44.43Z" fill="#49423c"/>
<path transform="matrix(.049481226,0,0,.049829686,3,14.203366)" d="M250 315.64C250 315.64 211.36 275.43003 158.95 275.43003 106.53999 275.43003 46.269998 275.43003 46.269998 275.43003V2.5C46.269998 2.5 78.70999 2.5 151.01999 2.5 223.32999 2.5 250 42.71 250 42.71V315.64Z" fill="#e6e6e6"/>
<path transform="matrix(.049481226,0,0,.049829686,3,14.203366)" d="M250 318.14C249.33 318.14 248.68 317.87004 248.2 317.37004 247.81999 316.98 209.65 277.93003 158.95999 277.93003H46.27C44.89 277.93003 43.77 276.81004 43.77 275.43003V2.5C43.77 1.12 44.89 0 46.27 0H151.02C223.84 0 250.97 39.64 252.08 41.33 252.35 41.74 252.5 42.22 252.5 42.710004V315.63C252.5 316.65 251.88 317.57 250.93 317.95 250.63 318.08 250.32 318.14 250 318.14ZM48.77 272.92H158.95C202.31 272.92 235.92 299.35 247.48999 309.79V43.52C243.84999 38.66 216.24999 5.010002 151.01999 5.010002H48.77V272.92Z" fill="#49423c"/>
<path transform="matrix(.049481226,0,0,.049829686,3,14.203366)" d="M244.5 315.64C244.5 315.64 283.14 275.43003 335.55 275.43003 387.95997 275.43003 448.22999 275.43003 448.22999 275.43003V2.5C448.22999 2.5 415.78999 2.5 343.47999 2.5 271.16999 2.5 244.49997 42.71 244.49997 42.71V315.64H244.5Z" fill="#e6e6e6"/>
<path transform="matrix(.049481226,0,0,.049829686,3,14.203366)" d="M244.5 318.14C244.18 318.14 243.87 318.08003 243.57 317.96003 242.62001 317.58003 242 316.66004 242 315.64V42.71C242 42.219999 242.14 41.739999 242.42 41.329999 243.53 39.64 270.66 0 343.48 0H448.23C449.61003 0 450.73 1.12 450.73 2.5V275.42C450.73 276.80003 449.61003 277.92 448.23 277.92H335.54C284.78 277.92 246.68001 316.97 246.30002 317.36003 245.82 317.87 245.17 318.14 244.5 318.14ZM247 43.52V309.78999C258.58 299.34999 292.18 272.91999 335.54 272.91999H445.72V5.01H343.48C278.24 5.01 250.64 38.66 247 43.52Z" fill="#49423c"/>
</g>
<g clip-path="url(#clip_3)">
<g opacity=".89">
<g clip-path="url(#clip_4)">
<g clip-path="url(#clip_5)">
<path transform="matrix(.05227295,0,0,.052162108,5.7047455,-.0000000000000049519047)" d="M311.39064 361.5664C303.08985 362.4297 294.4336 362.7422 293.39845 359.86329 290.51954 351.84767 280.40235 349.48439 281.46485 348.48048 281.8828 348.08204 285.47657 348.28126 291.4414 349.3672 294.3789 349.89845 303.13673 352.7422 306.04298 353.35548 307.53517 353.67189 308.77735 354.1836 309.83985 354.72657 314.1172 356.91017 321.47657 357.58595 327.1172 358.9375 330.17579 359.67189 332.71876 361.39064 334.01954 361.8164 332.51173 359.98829 330.20704 359.34376 328.97267 358.875 326.77735 358.03517 324.86329 357.21095 322.85939 356.85939 319.51954 356.28126 317.4297 356.08985 314.9922 354.88673 309.11329 351.9922 305.8164 350.6289 300.1172 349.75 300.35939 349.125 310.3672 348.29689 314.64064 348.47657 319.10939 348.65235 326.41017 349.77345 331.8203 349.47657 333.77345 349.3672 335.4375 349.02735 337.28126 348.82814 339.125 348.6328 341.33595 349.16407 343.3672 349.6211 341.60157 348.5547 337.9961 348.17579 335.22657 348.2539 332.46095 348.33595 329.92189 348.72657 326.9922 348.5625 322.69923 348.3203 318.4922 346.9336 314.17579 346.63673 308.51564 346.25 304.16017 347.84376 298.4922 347.48829 295.33204 347.28517 292.3828 346.34767 289.20314 345.91407 281.27735 344.82814 268.1328 346.5 256.69923 345.85157 250.79297 345.5078 244.05469 345.6211 239.01953 344.16017 234.94922 342.98048 226.57422 337.7422 226.13282 337.03517 224.875 335.02735 230.57813 333.54689 234.94922 333.98439 239.32032 334.42579 242.6289 335.0039 247.00782 335.42579 252.3125 335.9375 257.98439 335.7578 263.29298 335.51173 267.65626 335.3047 276.7578 334.98439 281.14845 335.34767 288.79298 335.96485 291.78517 337.21485 299.42189 337.8711 295.11329 336.92579 290.73048 336.0625 286.48829 335.0586 281.375 333.83985 274.17189 334.02345 271.21876 334.03126 241.50782 334.1836 242.85157 329.125 225.125 328.01954 216.90625 327.52735 202.52735 327.35548 194.28125 327.61329 188.8711 327.77735 183.45703 328.98048 178.03907 329.03126 175.24219 329.0547 172.44922 329.0703 169.65235 329.08985 168.30469 329.09376 166.63672 327.17579 166.09375 327.6797 163.53907 327.41798 156.94532 328.69923 156.61719 328.72657 152.89063 329.01564 148.6836 328.8711 145.13282 329.4375 142.25782 329.89064 137.07032 331.14454 135.42188 332.4336 131.42188 334.14454 127.51953 336.0703 122.484378 336.9414 120.37109 337.3086 118.12109 337.47657 116.07422 337.9336 111.5625 338.9375 108.71094 341.16017 104.42969 342.39064 100.234378 343.59376 95.171878 343.71485 90.453128 343.58985 85.73828 343.46485 81.01953 343.1289 76.27734 343.53907 71.53516 343.9453 66.59375 345.30079 64.80469 347.41407 69.08984 344.8086 77.08594 344.52735 83.67578 344.9414 90.26172 345.34767 97.32422 346.1328 103.55078 344.6875 108.16406 343.6172 111.52734 341.4453 116.33984 340.625 118.03906 340.33595 120.171878 340.28907 121.24609 340.91798 122.21484 341.48829 121.68359 342.32814 121.33984 343.0703 119.64453 346.70314 116.3125 347.1953 112.67969 348.8672 110.0625 350.07423 107.21094 350.60548 103.96875 351.39454 98.546878 352.71095 92.43359 353.59376 86.52734 354.1289 80.62109 354.65626 74.41406 355.5547 70.21094 357.66017 67.78906 358.875 66.23828 360.39064 63.98047 361.66017 58.796876 364.57814 51.308595 366.60548 49.035158 370.125 47.75 372.11329 47.601564 373.84376 47.496095 375.8672 47.39453 377.83204 45.910158 379.83204 43.320314 381.48439 46.28125 379.51954 48.96875 378.13673 50.152345 375.85548 51.464845 373.32814 50.671876 370.82814 54.29297 368.7422 57.40625 366.9453 62.929689 364.35548 66.38672 362.6797 68.57031 361.6211 70.05469 360.88673 72.0625 359.7539 76.58203 357.20704 82.109378 356.82423 88.80469 355.9453 95.49609 355.0664 103.71875 353.57423 110.15625 352.29689 116.59375 351.01564 123.12109 347.96876 125.10156 344.83985 126.00781 343.40626 125.59375 342.64064 126.609378 341.21876 128.42578 338.6875 133.26172 336.82423 138.30078 335.5586 143.34375 334.30079 145.71094 332.9961 154.38282 332.90235 156.24219 332.8789 165.85547 331.98439 169.85938 334.34376 172.02344 335.61329 169.69922 337.16407 167.89063 338.60548 163.75782 341.89845 156.10547 343.78517 149.32032 345.9336 142.53125 348.07423 135.73438 351.10157 135.3125 354.875 135.07032 357.02345 135.40235 359.02735 137.54297 361.16407 139.46094 363.07423 141.78125 364.6797 134.52344 365.9453 130.6836 366.6172 124.0625 366.32423 120.33594 367.14845 116.37891 368.02345 114.55859 369.90626 111.35156 371.3203 106.94922 373.2578 100.96094 373.28126 95.08984 373.66407 86.11328 374.2578 78.09766 377.57814 75.08203 381.54689 76.87891 379.9453 80.79297 378.97267 84.01953 377.85157 91.30469 375.3164 100.796878 376.08595 106.51953 375.19923 104.39453 378.13673 107.44531 382.97657 108.92578 385.92579 110.55859 389.17579 107.68359 389.21485 107.08594 393.28126 106.66016 396.1289 109.17578 399.4297 114.84375 400.375 111.38281 399.08204 110.57422 396.73829 111.03906 394.6328 111.50391 392.53126 112.984378 390.46485 113.11328 388.35548 113.38672 384.0039 107.13672 378.9297 112.4375 375.2539 116.33984 372.55079 117.390628 370.4336 123.60547 369.33595 132.75782 367.72267 142.4375 368.7539 145.45313 365.10939 146.77344 363.51173 144.15625 361.3125 143.45313 359.66407 139.38672 350.10157 158.07032 347.84376 159.52735 348.5078 161.59375 349.4297 156.99219 352.4414 160.22266 355.20314 162.39844 357.0664 167.74219 357.88673 168.94532 359.94923 170.0625 361.8711 166.45703 363.6875 165.39063 365.64454 163.17969 369.6953 172.125 373.77735 169.07813 377.71485 166.16407 381.48829 155.35157 381.85157 148.02344 383.9297 137.11719 387.02735 135.05078 395.22657 144.15235 399.1875 138.01953 393.8125 140.42578 387.4922 150.69532 385.84767 155.21094 385.125 160.59766 384.46876 164.69922 383.3125 168.71485 382.1836 171.48438 378.70314 176.10938 378.59767 179.5586 378.51954 182.09375 382.60939 183.75782 384.02345 185.42188 385.4375 186.25782 387.05079 187.9961 388.4453 190.83985 390.72267 196.20703 392.6836 195.48047 395.32814 195.11719 396.64064 194.64063 397.59376 194.58985 399.17189 198.28907 396.73439 198.61719 393.27345 195.3789 390.73829 193.40235 389.1914 190.23047 387.96485 189.1289 386.22657 188.40235 385.08595 185.65625 380.40235 184.55469 379.33595 180.55078 375.45704 175.9336 376.27345 172.9961 372.1953 166.94922 363.8047 179.84375 364.15235 177.05078 360.33985 174.58594 356.96485 164.23047 355.20704 165.22266 351.64845 165.90235 349.1914 171.78125 347.82423 174.23438 345.625 175.30078 344.66407 175.6836 343.5664 176.78516 342.61329 178.67578 340.98048 182.75782 339.96876 186.65235 340.17189 190.54688 340.375 191.51563 342.4375 192.53125 344.21485 194.76172 348.125 188.39453 351.4453 190.73047 355.34376 191.45703 356.5547 193.2461 357.66017 193.07422 358.92189 192.91016 360.10939 191.05078 361.0703 189.83985 362.1211 187.0586 364.53126 187.8789 367.73439 191.78125 369.73048 195.7539 371.76564 201.92578 372.39454 207.13282 373.6797 212.33594 374.96876 217.10938 377.76173 214.76953 380.3047 217.96485 378.15235 217.48438 374.96485 213.67578 373.0547 210.5039 371.46095 205.7539 370.85939 201.67188 369.82814 197.58594 368.79689 193.71875 366.8164 194.80469 364.6836 195.7539 362.8203 200.15235 361.60548 200.61328 359.70704 200.8086 358.89454 200.84375 358.01954 200.15625 357.26954 194.32032 350.90626 201.76172 345.3711 218.28907 352.02735 223.79297 354.2461 219.22657 358.2578 223.54297 359.83595 228.4961 361.63673 241.45703 359.33204 244.30469 361.96876 246.98828 364.4375 237.46094 369.03126 237.71485 371.79689 237.96875 374.5703 243.52735 376.66407 244.78125 379.3789 246.52344 383.14064 239.66407 386.53517 238.29688 390.33985 237.11719 393.6211 240.53516 397.15626 246.5586 398.89064 241.1836 396.9922 241.47266 393.125 243.67969 390.14064 245.88672 387.14845 249.51172 384.2461 249.05078 381.09376 248.63282 378.22657 244.85938 375.6797 243.69922 372.84767 242.53516 370.01564 246.16016 367.07423 252.23828 366.6875 266.91407 365.76173 261.39064 373.70704 267.6797 376.8086 273.57423 379.71485 288.71485 381.59376 288.69923 386.9922 288.6953 389.4414 288.15626 392.60548 283.59376 393.84767 292.6172 391.73439 295.4414 385.59767 289.03517 381.89454 283.73439 378.83204 267.1172 375.27735 269.82814 372.32814 268.94923 373.28517 284.80079 374.10548 297.70704 372.625 305.30079 371.75 313.25 374.01173 315.3789 377.4922 313.59376 374.5703 309.71485 372.28126 304.16407 371.5039 298.60939 370.72657 294.46485 371.34767 288.73829 371.44923 283.01173 371.54298 275.16017 371.9414 271.11329 370 268.14454 368.5703 268.29689 365.6836 264.73439 364.57814 261.46485 363.5586 256.97267 363.64845 253.97266 362.46095 251.6289 361.53517 250.74219 360.03517 248.7461 358.9414 242.78125 355.66407 228.19532 360.3086 227.8125 356.0664 227.32422 350.65235 220.21485 347.85157 213.10547 346.8789 208.42969 346.23829 203.69532 345.1836 201.1836 343.22657 198.67188 341.26954 199.16407 338.36329 203.1914 337.08595 207.23828 335.8086 212.94922 336.64454 216.61719 338.1797 220.28125 339.71485 222.6289 341.8125 225.7461 343.59767 233.19922 347.85157 247.0664 349.39454 258.58204 348.875 261.96095 348.6836 282.52345 348.09767 287.40626 358.39454 288.6328 360.97657 291.16798 363.82814 296.39845 364.96485 302.66407 366.3164 310.86329 362.5039 317.0039 364.02345 322.07814 365.26954 322.96876 369.95314 325.98048 372.16798 329.36329 374.64845 335.95314 375.39064 341.67579 376.71485 332.95704 374.69923 328.5 371.4336 325.70314 368.46095 322.52345 365.08985 320.73439 360.60157 311.39064 361.5664" fill="#3c3c3c"/>
</g>
<g clip-path="url(#clip_6)">
<path transform="matrix(.05227295,0,0,.052162108,5.7047455,-.0000000000000049519047)" d="M103.13672 374.1289C109.734378 375.48048 116.60547 376.03517 117.421878 372.19923 119.69531 361.53126 127.72656 358.58985 126.88281 357.22657 126.55078 356.6875 123.69922 356.88673 118.96094 358.20314 116.62891 358.85157 109.67578 362.45704 107.36719 363.21095 106.18359 363.60157 105.19922 364.2578 104.35547 364.96095 100.96094 367.79298 95.11328 368.51954 90.63281 370.1875 88.203128 371.09376 86.18359 373.35548 85.15234 373.89454 86.34375 371.45314 88.17578 370.65235 89.15625 370.04689 90.89844 368.96876 92.41797 367.91017 94.01172 367.4961 96.66406 366.80079 98.32422 366.60157 100.25781 365.04689 104.92578 361.29689 107.54297 359.5547 112.07031 358.51954 111.875 357.6797 103.921878 356.3047 100.52344 356.41017 96.96875 356.51564 91.16406 357.79689 86.859378 357.19923 85.30078 356.98439 83.97656 356.46095 82.50781 356.125 81.03906 355.78907 79.28125 356.42579 77.66406 356.96876 79.06641 355.58204 81.9375 355.20314 84.140628 355.42189 86.34375 355.6328 88.36719 356.2539 90.69531 356.1289 94.109378 355.94923 97.45703 354.20704 100.88672 353.9453 105.38672 353.59767 108.85156 355.86329 113.35547 355.52345 115.86719 355.33204 118.21094 354.14454 120.734378 353.64064 127.03125 352.3828 137.46485 354.85548 146.53516 354.125 151.22266 353.7461 156.5664 353.96095 160.5625 352.07814 163.78516 350.5547 170.4336 343.72267 170.78516 342.8047 171.78516 340.17579 167.26172 338.1914 163.79297 338.72267 160.32422 339.2539 157.70313 339.98048 154.22657 340.48048 150.01953 341.08595 145.51563 340.76173 141.30078 340.33595 137.83594 339.98439 130.60938 339.3672 127.12109 339.73439 121.046878 340.3672 118.671878 341.95314 112.60156 342.60939 116.02344 341.47267 119.50781 340.4414 122.87891 339.21095 126.94141 337.72657 132.66016 338.14454 135.00782 338.21876 158.59766 338.98048 157.52344 332.21876 171.59375 330.97267 178.11328 330.40626 189.51563 330.23829 196.05469 330.5586 200.33985 330.76173 204.63282 332.3086 208.92578 332.33985 211.14063 332.35157 213.35938 332.35157 215.57422 332.34767 216.64453 332.34376 217.97266 329.83595 218.39844 330.48048 220.42188 330.1172 224.59766 331.85548 225.1289 331.73439 225.3789 331.67579 225.64844 331.70704 225.90625 331.73439 228.85938 332.0625 232.19532 331.8164 235.00782 332.48829 237.28516 333.03126 241.39453 334.5625 242.69532 336.1953 245.86328 338.33595 248.94922 340.75 252.9375 341.76173 254.61328 342.1875 256.39454 342.34767 258.01564 342.88673 261.58595 344.0703 263.83985 346.8711 267.23048 348.33985 270.55079 349.77735 274.5664 349.78126 278.3086 349.46485 282.04689 349.14454 285.79298 348.54689 289.5547 348.90235 293.3164 349.2578 297.23048 350.8164 298.63673 353.48439 295.2539 350.27735 288.90626 350.21876 283.6797 350.98048 278.44923 351.73829 272.84767 352.98048 267.91798 351.28907 264.26564 350.03517 261.60548 347.3203 257.79689 346.3828 256.44923 346.05079 254.75782 346.03907 253.90625 346.8828 253.13672 347.64064 253.55469 348.71876 253.82422 349.67189 255.15235 354.33595 257.79298 354.89064 260.66407 356.95704 262.73439 358.44923 264.9922 359.0586 267.5586 359.98439 271.85157 361.53126 276.6953 362.48439 281.375 362.97657 286.0547 363.46485 290.97657 364.40235 294.30079 366.97267 296.21485 368.45314 297.4375 370.35157 299.22267 371.91407 303.3203 375.4961 309.2539 377.8203 311.03907 382.28517 312.05079 384.8125 312.15626 387.0547 312.23048 389.67579 312.3047 392.22267 313.46876 394.7539 315.51564 396.79298 313.17579 394.3672 311.0547 392.6836 310.1211 389.76954 309.09376 386.54298 309.73829 383.27345 306.875 380.71095 304.41407 378.5078 300.04689 375.3672 297.3125 373.32814 295.58595 372.03907 294.41017 371.14064 292.8203 369.75 289.25 366.6211 284.8672 366.32423 279.5625 365.40626 274.26173 364.48829 267.75 362.8047 262.65235 361.32814 257.5547 359.85157 252.39063 356.0625 250.83594 352.0547 250.1211 350.21485 250.45313 349.21485 249.65235 347.39454 248.22266 344.16017 244.39453 341.85157 240.40235 340.3086 236.41407 338.76954 234.53907 337.1211 227.66797 337.125 226.19532 337.125 218.57422 336.08204 215.39453 339.1836 213.67969 340.85939 215.51563 342.85157 216.94532 344.70704 220.21485 348.9414 226.26953 351.29298 231.64063 353.95704 237.01563 356.6211 242.39063 360.40235 242.71094 365.28517 242.89453 368.0664 242.6289 370.67189 240.92578 373.48439 239.40235 376.0039 237.55469 378.13673 243.30078 379.6211 246.33985 380.40626 251.58203 379.86329 254.53125 380.83204 257.66407 381.86329 259.10157 384.2539 261.6328 385.9922 265.11329 388.3828 269.85939 388.23439 274.5078 388.55079 281.6172 389.03126 287.95704 393.0586 290.32814 398.08985 288.91407 396.07423 285.8164 394.95314 283.26173 393.60939 277.5 390.57423 269.97657 391.86329 265.4453 390.8828 267.1172 394.6211 264.6836 400.97657 263.5 404.83595 262.1914 409.09376 264.47267 409.0625 264.9297 414.3086 265.2539 417.98048 263.25 422.32814 258.76173 423.71485 261.5078 421.9453 262.15235 418.88673 261.79298 416.17579 261.4336 413.46485 260.26954 410.83204 260.17579 408.10548 259.97657 402.47657 264.9453 395.72657 260.7578 391.1172 257.6797 387.72267 256.85548 385.01173 251.9336 383.7539 244.6914 381.89064 237.02344 383.4336 234.64844 378.76954 233.60547 376.72267 235.6875 373.8164 236.2461 371.66407 239.5 359.1953 224.70313 356.59767 223.54688 357.46485 221.90625 358.6914 225.54297 362.53517 222.98047 366.17189 221.25 368.625 217.01563 369.76564 216.0586 372.47267 215.16797 374.98439 218.01953 377.29689 218.85547 379.8164 220.59766 385.04689 213.50782 390.4961 215.90625 395.5703 218.20703 400.4297 226.76172 400.70314 232.55469 403.23829 241.17969 407.01564 242.78907 417.58204 235.57422 422.9414 240.4414 415.8203 238.5586 407.6953 230.4336 405.78126 226.86328 404.9453 222.60547 404.1914 219.35938 402.76954 216.1836 401.3789 214 396.90235 210.33985 396.83204 207.61328 396.78126 205.59375 402.14845 204.27735 404.01564 202.95703 405.8828 202.29297 408 200.91407 409.83985 198.65625 412.85157 194.41016 415.4922 194.98047 418.9336 195.26172 420.64064 195.64063 421.875 195.67578 423.9375 192.7539 420.8164 192.5 416.29689 195.0664 412.9414 196.63282 410.89454 199.14453 409.2461 200.01953 406.96876 200.59766 405.46876 202.78125 399.32423 203.65625 397.91798 206.83203 392.8164 210.48438 393.8047 212.82032 388.45314 217.6289 377.45704 207.41797 378.08985 209.64063 373.08204 211.59766 368.66407 219.80469 366.23829 219.02735 361.625 218.49219 358.4453 213.84375 356.7422 211.90625 353.90235 211.0625 352.66407 210.75782 351.23829 209.88672 350.01173 208.39453 347.90235 205.16016 346.61329 202.07422 346.90235 198.98828 347.1914 198.21875 349.8828 197.41016 352.20704 195.63282 357.32423 200.67188 361.61329 198.8125 366.71485 198.23438 368.29689 196.8164 369.7578 196.94922 371.39845 197.07813 372.9453 198.54688 374.1875 199.5039 375.54298 201.70313 378.65626 201.04688 382.84376 197.95313 385.48829 194.80469 388.1836 189.91797 389.0664 185.79297 390.78907 181.67188 392.51564 177.88672 396.20704 179.73828 399.52345 177.21094 396.73048 177.59375 392.54689 180.61328 390.01954 183.1289 387.91407 186.89063 387.09376 190.125 385.71095 193.35938 384.32814 196.42578 381.70704 195.5664 378.9297 194.82032 376.51173 191.33985 374.95704 190.98047 372.48048 190.82422 371.42189 190.80078 370.27735 191.34375 369.29298 195.98047 360.94923 190.09375 353.77345 176.98828 362.4922 172.6211 365.40235 176.23438 370.66017 172.8125 372.73439 168.88672 375.11329 158.6211 372.0547 156.35938 375.5078 154.23438 378.7578 161.78125 384.83204 161.57813 388.46485 161.375 392.1172 156.96875 394.88673 155.97657 398.46485 154.59766 403.4336 160.02344 407.8828 161.10157 412.8789 162.03516 417.1875 159.33203 421.8711 154.5625 424.21095 158.8164 421.66017 158.58985 416.57423 156.84375 412.64845 155.09766 408.71876 152.22657 404.89845 152.59375 400.73829 152.92578 396.95314 155.91407 393.58204 156.83594 389.85157 157.75782 386.1172 154.88672 382.2422 150.07032 381.70314 138.4414 380.41017 142.82032 390.94923 137.83985 395.04689 133.16797 398.8828 121.16797 401.3086 121.1875 408.51954 121.19141 411.78907 121.625 416.02345 125.23828 417.6836 118.09375 414.86329 115.83984 406.60939 120.91406 401.70704 125.11328 397.65235 138.28125 393.01954 136.13282 389.08985 136.82813 390.36329 124.265628 391.375 114.02344 389.22267 107.99609 387.95314 101.69141 390.85548 100.01172 395.52735 101.421878 391.60548 104.49219 388.58985 108.89844 387.6289 113.30469 386.66798 116.59375 387.5586 121.13672 387.7539 125.67969 387.94923 131.90625 388.53907 135.10938 385.98829 137.46485 384.11329 137.34375 380.28126 140.16407 378.84376 142.75782 377.51954 146.32032 377.66407 148.69922 376.11329 150.5586 374.90235 151.25782 372.92579 152.84375 371.4961 157.57032 367.22267 169.1289 373.3672 169.4336 367.78517 169.82422 360.66798 175.46485 357.01954 181.10157 355.7461 184.8086 354.90626 188.5625 353.51564 190.55469 350.94923 192.55078 348.39064 192.16407 344.59767 188.97266 342.9336 185.76953 341.26564 181.23828 342.34376 178.32813 344.34767 175.42188 346.34767 173.5586 349.08985 171.08203 351.41798 165.17188 356.97267 154.17969 358.9375 145.04297 358.10157 142.36719 357.83985 126.04297 356.6953 122.17969 370.33985 121.20703 373.76564 119.19531 377.53907 115.046878 378.98048 110.078128 380.69923 103.5625 375.41407 98.6875 377.3164 94.65625 378.88673 93.96094 385.20314 91.57422 388.14064 88.89844 391.4336 83.66406 392.3047 79.12109 393.98829 86.04297 391.4297 89.57422 387.08204 91.78516 383.125 94.30078 378.625 95.71094 372.6172 103.13672 374.1289" fill="#3c3c3c"/>
</g>
<g clip-path="url(#clip_7)">
<path transform="matrix(.05227295,0,0,.052162108,5.7047455,-.0000000000000049519047)" d="M288.9336 173.01172 290.1211 172.5664 290.66798 172.73828C296.13673 174.46875 300.9375 175.70703 305.33985 176.52344 309.65235 177.30078 314.0547 177.85157 318.5 178.17969 317.21095 177.98828 315.92579 177.77735 314.66017 177.55469 309.71095 176.66797 303.9297 175.125 297.47657 172.97266L292.9961 171.47657 298.60157 169.40235C315.1836 163.32422 325.91407 155.67188 332.8164 148.73047 326.98829 152.6289 320.1914 155.96485 313.55079 158.9375L310.57814 160.26953 311.2461 157.08594C312.25 152.28516 313.59767 148.26172 315.2578 145.11719 314.3789 146.38672 313.55079 147.7539 312.8047 149.21875 311.34376 152.07422 310.13673 155.71875 309.22267 160.05078L309.04298 160.90235 308.23829 161.23828C298.7578 165.21094 288.5039 169.0625 278.58985 172.78516 268.64845 176.51953 259.26173 180.04688 251.24219 183.46094L246.64063 185.41797 249.16016 181.09375C250.94922 178.01953 252.4414 175.16016 253.71485 172.34375 255.51953 168.34766 257.38673 163.28516 259.35939 157.92188L259.8711 156.52735 260.9297 156.4414C266.28907 156.00782 270.6875 155.34375 274.3711 154.41407 275.60548 154.10547 276.8047 153.76563 277.96876 153.40235 273.83595 154.29297 268.7578 154.91016 262.82814 155.24219L260.28907 155.38672 261.1797 153.0039C264.8164 143.27735 270.33595 128.5039 279.3672 116.30469 273.46485 121.85156 267.71876 129.05469 263.8125 138.15235 263.3672 139.1836 262.9375 140.19922 262.51954 141.20313L260.625 145.75 259.3789 140.98438C257.9375 135.45703 257.11329 130.4961 256.9297 126.23828 256.8164 123.55078 256.8164 119.9375 257.20704 115.73828 256.03517 121.30078 255.41407 127.60156 255.91016 134.42578 256.23048 138.83203 257.20314 143.91797 258.8086 149.53907L258.96095 150.07813 258.59767 151.01953C253.55469 163.96875 249.96094 175.41407 239 188.65625L237.1914 190.04297C230.92969 193.375 224.70313 197.3086 218.6875 201.72657L216.63282 203.23828 216.08594 200.7461C214.23438 192.36719 213.42578 184.95313 213.67969 178.71485 213.83203 174.9414 214.32032 169.58594 215.65625 163.35157 213.16797 170.625 211.30078 179.14844 211.20313 188.47266 211.14844 193.32032 211.72657 198.89453 212.91407 205.03907L213.10547 206.01563 212.33594 206.64453C205.28125 212.375 200.11719 217.51172 197.02344 220.8086L194.92188 223.05078 194.19922 220.0625C193.09766 215.51953 192.08985 210.07422 191.28125 205.69532 190.57422 201.88672 189.96875 198.59375 189.5664 197.3164 187.67578 191.32422 191.17969 154.73828 198.7461 131.41407L198.86719 131.03516 199.95313 129.95703C203.89453 126.03125 207.00782 122.92969 210.92188 119.25391L212.97657 117.28125C221.29297 109.30078 233.23828 97.83984 243.78907 83.28516 239.25782 89.046878 233.99219 94.796878 227.89063 100.23047 219.45313 107.79297 211.625 114.97656 204.61719 121.58594L199.85547 125.56641C200.73828 123.02344 203.66797 114.78125 204.54297 112.33203 208.03125 102.46484 214.07032 85.37891 216.30078 64.75391 215.3125 71.23047 213.79688 77.91016 211.57422 84.60156L210.73047 87.13672 207.46094 83.90625C203.23438 79.74609 199.58594 76.15234 197.0039 71.73047 195.91797 69.87109 194.84375 67.97266 193.82813 65.98828 195.15235 69.0625 196.84375 72.296878 198.98828 75.66016 200.9414 78.734378 204.5039 83.140628 209.29688 88.40234L209.97266 89.14453 207.40235 96.17578C194.02344 132.7461 184.35547 159.17188 181.32422 179.42188L180.65625 183.86328 178.27344 180.05469C172.30078 170.51172 166.6875 160.00782 161.58985 148.82813L161.20703 147.98828 161.71485 147.22266C165.13282 142.0586 167.77344 137.3125 169.5586 133.10547 173.52735 123.80078 174.9414 115.08984 175.11328 107.70703 174.01953 114.82422 172.07422 120.796878 170.51953 124.77734 168.60157 129.69532 165.47657 135.39844 161.24219 141.71875L159.53516 144.26563 158.33594 141.4414C153.73047 130.61719 149.53125 119.08594 145.85547 107.15625L145.61719 106.38281 146.08594 105.71484C149.63282 100.66016 152.14844 96.3125 153.78516 92.421878 155.25782 88.92578 156.23438 85.55859 156.84766 82.390628 156.33594 84.09766 155.8086 85.58984 155.33203 86.82031 153.70313 91.03516 150.90235 96.00781 147.0039 101.59766L145.01563 104.44922 144.04688 101.11328C139.51953 85.54297 136.48828 71.49219 134.53516 60.42578 134.9375 66.94922 135.82813 74.80859 137.61719 84.140628L138.3789 88.11328 135.04688 85.82422C127.72656 80.79297 122.203128 76.23828 118.171878 71.89844 117.94922 71.65625 117.72266 71.41016 117.5 71.16016 119.359378 73.58984 121.4375 76 123.75781 78.35547 127.47656 82.15625 132.28516 86.09766 138.45703 90.40625L138.98828 90.77734 139.1289 91.40625C141.77344 103.24609 145.57032 116.16406 150.41407 129.78907L151.66797 133.32032 148.21094 131.8789C134.58985 126.20703 101.25391 111.34375 85.9375 95.84375 85.56641 95.46484 85.19922 95.07422 84.83594 94.67578 86.78125 97.15625 88.97656 99.61328 91.453128 101.99219 106.015628 115.98828 131.82813 128.9414 150.67578 138.39453L151.69922 138.90625 151.92969 139.50782C152.67969 141.48047 153.4375 143.48438 154.20703 145.52344 158.5664 157.0664 163.5039 170.15235 170.21875 184.25782L171.67969 187.32813 168.35938 186.59375C158.79297 184.46875 152.79297 181.91797 145.84375 178.96875L144.60938 178.4414C135.60547 174.625 127.13672 170.00782 119.546878 164.83985 127.93359 172.04688 139.4414 179.90235 154.40625 185.92578 156.76563 186.88672 158.60157 187.78516 160.375 188.65625 163.66016 190.26953 166.5039 191.66407 171.67188 192.8789L172.42969 193.0586 172.77735 193.7539C173.39063 194.98828 177.9336 220.22657 177.98047 220.47657L178.5039 223.3125C178.66016 223.76563 175.23047 221.98828 175.26563 222.01172 174.83203 221.69922 171.97657 220.19532 168.67188 218.45313 147.83203 207.47657 92.47266 178.32422 71.24609 153.10547 68.76953 150.01563 66.46875 146.46094 64.390628 142.55078 67.32422 148.89453 71.27344 155.42578 76.57422 161.69532 89.03516 176.51953 108.14844 187.74219 126.63281 198.59375L133.23828 203.27344 126.77734 202.40625C95.60156 197.03125 68.25781 189.04297 45.11328 178.57032 54.121095 183.27735 66.55078 188.5664 83.87891 193.89453L88.08203 195.1875 83.92578 197.05469C80.97266 198.0586 78.21094 198.82032 75.71484 199.32422 73.63672 199.74219 71.52734 200.08985 69.38672 200.36328 74.64844 200.19532 79.82422 199.57032 84.80859 198.5039 85.55469 198.34375 90.47266 196.29688 90.95703 196.07032 105.828128 200.51953 123.82422 205.16016 145.96875 210.2539L146.24219 210.3164 146.48047 210.46875C149.69532 212.49219 152.52344 214.3711 155.1289 216.20313L158.8086 218.79297 154.32813 219.21485C149.94532 219.625 145.58594 220.77735 141.3789 222.63672 139.23047 223.58594 137.21094 224.8789 135.07422 226.24219 133.44532 227.28516 131.75782 228.36328 129.9414 229.33203 121.50781 233.8164 112.21875 235.49219 105.42969 236.71485 101.60547 237.39844 97.640628 237.91797 93.64844 238.26563 93.69141 238.26563 93.73047 238.26563 93.76953 238.26563 101.07422 238.26563 108.35547 237.58985 115.37891 236.26172L115.50391 236.23047 121.171878 235.35938 116.81641 239.1914C111.58984 243.11719 105.828128 247.1836 99.36328 250.10157 102.80469 248.9414 106.83984 247.26953 111.52734 244.88672 114.31641 243.46485 117.23047 241.89453 120.046878 240.3789 132.13672 233.86719 144.63282 227.13282 155.65235 227.13282 163.34766 227.13282 169.6211 230.52344 174.29688 237.20703 178.86328 243.72266 179.95703 252.19922 180.3789 258.0078 182.3086 284.47267 177.65235 315.40235 163.26953 328.4375 166.41407 328.71876 170.4414 330.82814 173.50782 330.82814 174.35157 330.82814 177.8711 332.5078 178.5039 332.46876 192.04297 331.53517 202.96485 329.76173 216.27344 329.14454 213.73438 321.34767 205.75 293.21876 208.1875 275.16017 212.30469 244.73828 235.33985 241.21875 252.3125 241.21875 254.15625 241.21875 256.09376 241.26172 258.39454 241.34375L259.07423 241.36719 259.53907 241.85938C261.98048 244.42578 264.39064 246.64063 266.69923 248.4414 270.67579 251.53125 274.85548 254.0625 278.89454 256.1211 276.3672 254.36328 274.1797 252.72266 272.4414 251.41407 270.35548 249.85157 268.08985 247.67578 265.3203 244.57813L262.57814 241.51172 266.6797 241.8164C268.1875 241.92969 269.71876 242.05078 271.27735 242.17188 276.16798 242.5625 281.22267 242.96485 286.64064 243.15625 289.26173 243.26563 291.79689 243.32032 294.17579 243.32032 297.57423 243.32032 300.57423 243.21094 303.22267 243.01953 292.9922 243.01172 282.04689 241.17188 271.46485 239.38672 264.15235 238.15625 256.58985 236.88282 249.48828 236.26563L243.46875 235.74219 248.91016 233.11719C251.17188 232.02344 253.28907 230.85547 255.26563 229.65235 250.01172 231.9961 245.33203 233.4336 241.99219 234.28125 238.4961 235.14844 231.35938 236.53516 228.67188 237.0586 228.2539 237.14063 227.7461 237.24219 227.7461 237.24219 216.58203 239.61719 209.58985 244.50782 205.6914 248.1914L203.53907 250.22657 202.79297 246.69922C201.79688 242 200.9336 237.9414 202.0039 234.8789 206.1836 222.86719 224.77735 205.83985 236.64453 197.58594L237.2461 197.16797 242.03125 198.25C263.08204 203.01953 289.28126 208.95313 309.2578 208.95313 310.4375 208.94532 311.60157 208.92188 312.7461 208.88282 295.53517 208.0664 270.60548 203.26953 244.61328 195.69922L240.94922 194.63282 244.23047 192.67969C257.6953 184.65625 272.17189 179.26172 288.9336 173.01172" fill="#3c3c3c"/>
<path transform="matrix(.05227295,0,0,.052162108,5.7047455,-.0000000000000049519047)" d="M126.45703 9.429688C126.44922 9.472656 114.89844 25.046875 132.1211 36.757814 132.11719 36.804689 143.83985 21.820313 126.45703 9.429688" fill="#3c3c3c"/>
<path transform="matrix(.05227295,0,0,.052162108,5.7047455,-.0000000000000049519047)" d="M6.375 134.34375C6.386719 134.40235 5.015625 146.91016 21.253907 145.94532 21.269532 146.01172 22.898438 133.20313 6.375 134.34375" fill="#3c3c3c"/>
<path transform="matrix(.05227295,0,0,.052162108,5.7047455,-.0000000000000049519047)" d="M23.609375 121.49219C23.617188 121.53125 22.90625 131.52344 35.929689 130.60547 35.941408 130.64844 36.890626 120.50781 23.609375 121.49219" fill="#3c3c3c"/>
<path transform="matrix(.05227295,0,0,.052162108,5.7047455,-.0000000000000049519047)" d="M142.02735 14.113281C142.02735 14.113281 133.89844 21.511719 141.60547 29.882813 141.60157 29.882813 149.73047 22.90625 142.02735 14.113281" fill="#3c3c3c"/>
<path transform="matrix(.05227295,0,0,.052162108,5.7047455,-.0000000000000049519047)" d="M147.57813 9.371094C147.57422 9.378906 145.40625 15.179688 151.94532 19.257813 152.36328 17.386719 154.13672 13.578125 147.57813 9.371094" fill="#3c3c3c"/>
<path transform="matrix(.05227295,0,0,.052162108,5.7047455,-.0000000000000049519047)" d="M193.86328 6.664062C193.85547 6.609375 177.41407 16.863282 188.7461 34.625 188.74219 34.566408 205.07032 25.242188 193.86328 6.664062" fill="#3c3c3c"/>
<path transform="matrix(.05227295,0,0,.052162108,5.7047455,-.0000000000000049519047)" d="M211.1836 3.65625C211.17578 3.664062 199.73828 17.648438 217.17969 31.867188 217.16797 31.875 228.78516 18.679688 211.1836 3.65625" fill="#3c3c3c"/>
<path transform="matrix(.05227295,0,0,.052162108,5.7047455,-.0000000000000049519047)" d="M114.67969 29.785157C114.67969 29.867188 106.27344 46.648439 125.87891 55.078126 125.87891 55.160158 134.57422 38.648439 114.67969 29.785157" fill="#3c3c3c"/>
<path transform="matrix(.05227295,0,0,.052162108,5.7047455,-.0000000000000049519047)" d="M151.15625 26.78125C151.14453 26.699219 132.3789 34.65625 138.48828 53.695314 138.48047 53.621095 156.94532 46.539064 151.15625 26.78125" fill="#3c3c3c"/>
<path transform="matrix(.05227295,0,0,.052162108,5.7047455,-.0000000000000049519047)" d="M166.40235 30.234375C166.39453 30.1875 152.47657 35.628908 156.98438 49.898439 156.98047 49.85547 170.67578 44.996095 166.40235 30.234375" fill="#3c3c3c"/>
<path transform="matrix(.05227295,0,0,.052162108,5.7047455,-.0000000000000049519047)" d="M202.54688 34.121095C202.54297 34.070314 188.60157 38.597658 193.07032 53.160158 193.0664 53.11328 206.77344 49.132814 202.54688 34.121095" fill="#3c3c3c"/>
<path transform="matrix(.05227295,0,0,.052162108,5.7047455,-.0000000000000049519047)" d="M165.09766 5.34375C165.08985 5.289062 151.14844 10.792969 155.66407 25.042969 155.66016 24.992188 169.3789 20.089844 165.09766 5.34375" fill="#3c3c3c"/>
<path transform="matrix(.05227295,0,0,.052162108,5.7047455,-.0000000000000049519047)" d="M176.51172 55.964845C176.51172 55.90625 161.63282 57.79297 161.72266 72.81641 161.72266 72.765628 176.23047 71.27344 176.51172 55.964845" fill="#3c3c3c"/>
<path transform="matrix(.05227295,0,0,.052162108,5.7047455,-.0000000000000049519047)" d="M206.02344 42.027345C206.01953 42.039064 199.34375 51.3125 211.57032 58.57422 211.5664 58.585939 218.39063 49.70703 206.02344 42.027345" fill="#3c3c3c"/>
<path transform="matrix(.05227295,0,0,.052162108,5.7047455,-.0000000000000049519047)" d="M49.734376 61.53125C49.742189 61.578126 46.960939 72.66797 60.695314 72.59375 60.703126 72.640628 63.70703 61.484376 49.734376 61.53125" fill="#3c3c3c"/>
<path transform="matrix(.05227295,0,0,.052162108,5.7047455,-.0000000000000049519047)" d="M172.04297 75.40234C172.04297 75.359378 159.26563 76.41797 160.03516 89.06641 160.03516 89.03125 172.51563 88.3125 172.04297 75.40234" fill="#3c3c3c"/>
<path transform="matrix(.05227295,0,0,.052162108,5.7047455,-.0000000000000049519047)" d="M231.96485 26.410157C231.96485 26.363282 219.15235 26.007813 219.85938 38.69922 219.85938 38.660158 232.3789 39.26953 231.96485 26.410157" fill="#3c3c3c"/>
<path transform="matrix(.05227295,0,0,.052162108,5.7047455,-.0000000000000049519047)" d="M187.0586 76.40234C187.0586 76.37891 176.73438 77.671878 178.25782 87.90625 178.25782 87.88281 188.36719 86.88281 187.0586 76.40234" fill="#3c3c3c"/>
<path transform="matrix(.05227295,0,0,.052162108,5.7047455,-.0000000000000049519047)" d="M187.14844 55.05078C187.14844 55.078126 186.61719 45.828126 174.85938 46.32422 174.85938 46.35547 175.11719 55.191408 187.14844 55.05078" fill="#3c3c3c"/>
<path transform="matrix(.05227295,0,0,.052162108,5.7047455,-.0000000000000049519047)" d="M189.46875 66.08594C189.46875 66.109378 189.00782 58.046876 178.75782 58.41797 178.75782 58.4375 178.98047 66.16797 189.46875 66.08594" fill="#3c3c3c"/>
<path transform="matrix(.05227295,0,0,.052162108,5.7047455,-.0000000000000049519047)" d="M193.33594 72.4375C193.33594 72.44922 190.6914 66.41016 183.03125 68.921878 183.03125 68.93359 185.4375 74.76172 193.33594 72.4375" fill="#3c3c3c"/>
<path transform="matrix(.05227295,0,0,.052162108,5.7047455,-.0000000000000049519047)" d="M202.29688 86.546878C202.29688 86.56641 198.77344 78.4375 188.54297 81.69531 188.54297 81.71875 191.7539 89.515628 202.29688 86.546878" fill="#3c3c3c"/>
<path transform="matrix(.05227295,0,0,.052162108,5.7047455,-.0000000000000049519047)" d="M179.8711 65.91797C179.86719 65.89844 170.27344 69.59766 174.75782 79.078128 174.7539 79.05859 184.22657 75.734378 179.8711 65.91797" fill="#3c3c3c"/>
<path transform="matrix(.05227295,0,0,.052162108,5.7047455,-.0000000000000049519047)" d="M206.58203 27.992188C206.57813 28.011719 202.39844 36.152345 213.11719 40.92578 213.11328 40.941408 217.46485 33.066408 206.58203 27.992188" fill="#3c3c3c"/>
<path transform="matrix(.05227295,0,0,.052162108,5.7047455,-.0000000000000049519047)" d="M173.14844 .25390599C173.14844 .273438 168.97657 8.675781 179.73828 12.8203129 179.73438 12.839844 184.07422 4.664062 173.14844 .25390599" fill="#3c3c3c"/>
<path transform="matrix(.05227295,0,0,.052162108,5.7047455,-.0000000000000049519047)" d="M111.25781 15.3828129C111.25781 15.410156 107.15234 24.214844 117.85156 27.074219 117.85156 27.097657 122.11328 18.460938 111.25781 15.3828129" fill="#3c3c3c"/>
<path transform="matrix(.05227295,0,0,.052162108,5.7047455,-.0000000000000049519047)" d="M167.80469 108.9375C167.80469 108.94531 175.625 99.86328 164.35157 92.25781 164.34766 92.265628 156.46094 100.97656 167.80469 108.9375" fill="#3c3c3c"/>
<path transform="matrix(.05227295,0,0,.052162108,5.7047455,-.0000000000000049519047)" d="M185.375 43.39453C185.375 43.433595 187.76953 32.265626 173.58594 29.882813 173.58203 29.917969 170.9336 40.566408 185.375 43.39453" fill="#3c3c3c"/>
<path transform="matrix(.05227295,0,0,.052162108,5.7047455,-.0000000000000049519047)" d="M179.50782 100.25781C179.50782 100.23047 190.60157 99.71484 190.03516 88.74609 190.03516 88.71875 179.17578 88.96875 179.50782 100.25781" fill="#3c3c3c"/>
<path transform="matrix(.05227295,0,0,.052162108,5.7047455,-.0000000000000049519047)" d="M135.98828 151.5039C135.98828 151.48047 147.00782 150.30078 146.41016 139.3711 146.40625 139.35157 135.61719 140.27735 135.98828 151.5039" fill="#3c3c3c"/>
<path transform="matrix(.05227295,0,0,.052162108,5.7047455,-.0000000000000049519047)" d="M160.07422 58.53125C160.07032 58.5 171.19532 57.63672 170.61328 46.679689 170.60938 46.648439 159.71875 47.26172 160.07422 58.53125" fill="#3c3c3c"/>
<path transform="matrix(.05227295,0,0,.052162108,5.7047455,-.0000000000000049519047)" d="M166.69532 26.515625C166.69532 26.480469 177.85157 25.738282 177.27344 14.777344 177.27344 14.7421879 166.35157 15.230469 166.69532 26.515625" fill="#3c3c3c"/>
<path transform="matrix(.05227295,0,0,.052162108,5.7047455,-.0000000000000049519047)" d="M158.05469 109.52734C158.05078 109.55859 152.8164 120.59375 166.69922 125.56641 166.69922 125.59375 172.15235 114.828128 158.05469 109.52734" fill="#3c3c3c"/>
<path transform="matrix(.05227295,0,0,.052162108,5.7047455,-.0000000000000049519047)" d="M143.70313 65.88281C143.69922 65.91406 138.46485 77.0625 152.39063 81.671878 152.39063 81.703128 157.84375 70.78906 143.70313 65.88281" fill="#3c3c3c"/>
<path transform="matrix(.05227295,0,0,.052162108,5.7047455,-.0000000000000049519047)" d="M146.33985 54.328126C146.33985 54.35547 143.30078 63.96875 155.47266 66.52344 155.47266 66.55078 158.73047 57.08203 146.33985 54.328126" fill="#3c3c3c"/>
<path transform="matrix(.05227295,0,0,.052162108,5.7047455,-.0000000000000049519047)" d="M200.84766 56.371095C200.84375 56.39453 195.55078 67.06641 209.47657 72.984378 209.47266 73.00781 214.99219 62.664064 200.84766 56.371095" fill="#3c3c3c"/>
<path transform="matrix(.05227295,0,0,.052162108,5.7047455,-.0000000000000049519047)" d="M203.16016 151.85547C203.15625 151.86328 196.53907 161.27344 208.66016 168.29688 208.65625 168.30469 215.41797 159.28907 203.16016 151.85547" fill="#3c3c3c"/>
<path transform="matrix(.05227295,0,0,.052162108,5.7047455,-.0000000000000049519047)" d="M207.77344 141.96094C207.77344 141.96875 203.625 150.1836 214.2461 154.78516 214.24219 154.79688 218.55469 146.86328 207.77344 141.96094" fill="#3c3c3c"/>
<path transform="matrix(.05227295,0,0,.052162108,5.7047455,-.0000000000000049519047)" d="M198.03516 166.28907C198.03125 166.3086 192.78516 177.08985 206.58985 182.7539 206.58594 182.77344 212.05469 172.33594 198.03516 166.28907" fill="#3c3c3c"/>
<path transform="matrix(.05227295,0,0,.052162108,5.7047455,-.0000000000000049519047)" d="M197.85157 182.94922C197.85157 182.96875 192.61328 193.76172 206.39844 199.39453 206.39453 199.41016 211.85547 188.96485 197.85157 182.94922" fill="#3c3c3c"/>
<path transform="matrix(.05227295,0,0,.052162108,5.7047455,-.0000000000000049519047)" d="M188.5625 121.82422C188.5625 121.78516 175.14844 120.66016 173.53516 134.01953 173.53516 133.98438 186.57813 135.33594 188.5625 121.82422" fill="#3c3c3c"/>
<path transform="matrix(.05227295,0,0,.052162108,5.7047455,-.0000000000000049519047)" d="M178.92969 113.64453C178.9336 113.61719 191.39063 116.86328 195.6914 104.68359 195.69532 104.65625 183.60547 101.046878 178.92969 113.64453" fill="#3c3c3c"/>
<path transform="matrix(.05227295,0,0,.052162108,5.7047455,-.0000000000000049519047)" d="M215.2461 87.64453C215.25 87.61719 227.67578 91.66406 232.1289 79.86719 232.13282 79.84375 220.08594 75.40625 215.2461 87.64453" fill="#3c3c3c"/>
<path transform="matrix(.05227295,0,0,.052162108,5.7047455,-.0000000000000049519047)" d="M219.74219 74.90625C219.7461 74.87109 232.6836 76.94531 234.3711 64.43359 234.375 64.39844 221.76172 61.964845 219.74219 74.90625" fill="#3c3c3c"/>
<path transform="matrix(.05227295,0,0,.052162108,5.7047455,-.0000000000000049519047)" d="M220.25782 60.78125C220.25782 60.746095 233.13672 63.36328 235.48047 51.01172 235.48438 50.972658 222.94532 47.984376 220.25782 60.78125" fill="#3c3c3c"/>
<path transform="matrix(.05227295,0,0,.052162108,5.7047455,-.0000000000000049519047)" d="M221.3125 48.429689C221.3164 48.390626 234.20313 51.070314 236.55078 38.73047 236.55469 38.695314 224.00782 35.640626 221.3125 48.429689" fill="#3c3c3c"/>
<path transform="matrix(.05227295,0,0,.052162108,5.7047455,-.0000000000000049519047)" d="M269.6211 20.136719C269.6172 20.089844 257.54298 26.109375 266.20314 40.3125 266.20314 40.265626 278.1836 34.890626 269.6211 20.136719" fill="#3c3c3c"/>
<path transform="matrix(.05227295,0,0,.052162108,5.7047455,-.0000000000000049519047)" d="M256.8125 100.703128C256.8164 100.71484 246.48828 91.89453 235.28516 100.26953 235.28516 100.28906 245.13672 108.625 256.8125 100.703128" fill="#3c3c3c"/>
<path transform="matrix(.05227295,0,0,.052162108,5.7047455,-.0000000000000049519047)" d="M248.4336 109.640628C248.4414 109.640628 236.8164 102.47656 227.5 112.66406 227.5039 112.671878 238.64844 119.48828 248.4336 109.640628" fill="#3c3c3c"/>
<path transform="matrix(.05227295,0,0,.052162108,5.7047455,-.0000000000000049519047)" d="M233.82422 119.70703C233.82813 119.69922 221.73438 113.53125 213.3125 124.55469 213.3164 124.55078 224.92578 130.47657 233.82422 119.70703" fill="#3c3c3c"/>
<path transform="matrix(.05227295,0,0,.052162108,5.7047455,-.0000000000000049519047)" d="M251.77735 45.30078C251.77735 45.273439 241.97266 51.289064 251.05469 62.03125 251.05078 62.007814 260.83595 56.507814 251.77735 45.30078" fill="#3c3c3c"/>
<path transform="matrix(.05227295,0,0,.052162108,5.7047455,-.0000000000000049519047)" d="M280.26954 44.371095C280.27345 44.347658 268.91017 39.714845 265.26173 50.3125 265.26564 50.29297 276.28126 54.839845 280.26954 44.371095" fill="#3c3c3c"/>
<path transform="matrix(.05227295,0,0,.052162108,5.7047455,-.0000000000000049519047)" d="M257.4453 33.027345C257.4453 33.01953 250.4414 38.773439 258.98829 46.84375 258.98439 46.835939 266.02735 41.484376 257.4453 33.027345" fill="#3c3c3c"/>
<path transform="matrix(.05227295,0,0,.052162108,5.7047455,-.0000000000000049519047)" d="M282.94923 97.16797C282.94923 97.14453 274.3789 100.85156 280.70704 110.22266 280.70704 110.19922 289.21485 106.88281 282.94923 97.16797" fill="#3c3c3c"/>
<path transform="matrix(.05227295,0,0,.052162108,5.7047455,-.0000000000000049519047)" d="M291.26564 89.9375C291.26564 89.91406 282.71095 93.44531 289.02345 102.89453 289.02345 102.87109 297.52345 99.72656 291.26564 89.9375" fill="#3c3c3c"/>
<path transform="matrix(.05227295,0,0,.052162108,5.7047455,-.0000000000000049519047)" d="M200.74219-.00390625C200.74219-.00390625 193.89063 6.359375 202.3164 13.4765629 202.3125 13.472656 209.20703 7.476562 200.74219-.00390625" fill="#3c3c3c"/>
<path transform="matrix(.05227295,0,0,.052162108,5.7047455,-.0000000000000049519047)" d="M315.15235 57.085939C315.15626 57.04297 303.73048 57.45703 307.51954 69.44141 307.52345 69.39844 318.7578 69.296878 315.15235 57.085939" fill="#3c3c3c"/>
<path transform="matrix(.05227295,0,0,.052162108,5.7047455,-.0000000000000049519047)" d="M322.01173 118.890628C322.01173 118.875 315.3086 123.78125 323.4375 132 323.4375 131.98047 330.16798 127.48047 322.01173 118.890628" fill="#3c3c3c"/>
<path transform="matrix(.05227295,0,0,.052162108,5.7047455,-.0000000000000049519047)" d="M356.16017 135.3125C356.16798 135.29688 346.40626 131.97266 345.20314 141.0664 345.20704 141.05469 354.72267 144.36328 356.16017 135.3125" fill="#3c3c3c"/>
<path transform="matrix(.05227295,0,0,.052162108,5.7047455,-.0000000000000049519047)" d="M346.0078 94.19531C346.01954 94.16016 334.3672 90.64844 333.71095 101.76172 333.71876 101.734378 345.08595 105.25 346.0078 94.19531" fill="#3c3c3c"/>
<path transform="matrix(.05227295,0,0,.052162108,5.7047455,-.0000000000000049519047)" d="M334.58595 76.85156C334.59376 76.8125 323.3789 75.41406 325.16798 86.73828 325.17579 86.69922 336.15626 88.27344 334.58595 76.85156" fill="#3c3c3c"/>
<path transform="matrix(.05227295,0,0,.052162108,5.7047455,-.0000000000000049519047)" d="M351.875 146.0664C351.8789 146.0664 342.83595 140.59375 338.39845 148.30078 338.40235 148.30469 347.16017 153.59375 351.875 146.0664" fill="#3c3c3c"/>
<path transform="matrix(.05227295,0,0,.052162108,5.7047455,-.0000000000000049519047)" d="M335.4961 132.53125C335.5 132.5 326.32814 133.66016 330.35157 143.40235 330.35548 143.3711 339.39064 142.5 335.4961 132.53125" fill="#3c3c3c"/>
<path transform="matrix(.05227295,0,0,.052162108,5.7047455,-.0000000000000049519047)" d="M300.3086 45.316408C300.3086 45.296876 292.91407 49.589845 300.41017 58.39453 300.41017 58.378908 307.80079 54.48828 300.3086 45.316408" fill="#3c3c3c"/>
<path transform="matrix(.05227295,0,0,.052162108,5.7047455,-.0000000000000049519047)" d="M282.16798 31.585938C282.17189 31.554688 272.20704 31.121094 273.80079 41.15625 273.8047 41.128908 283.5664 41.76953 282.16798 31.585938" fill="#3c3c3c"/>
<path transform="matrix(.05227295,0,0,.052162108,5.7047455,-.0000000000000049519047)" d="M325.14845 140.39063C325.15235 140.36328 315.95314 141.7539 319.98829 151.46875 319.9922 151.4414 329.0586 150.33594 325.14845 140.39063" fill="#3c3c3c"/>
<path transform="matrix(.05227295,0,0,.052162108,5.7047455,-.0000000000000049519047)" d="M339.48829 164.48828C339.48439 164.51563 333.64845 156.44532 324.60939 160.28907 324.60939 160.3125 330.14454 168.0586 339.48829 164.48828" fill="#3c3c3c"/>
<path transform="matrix(.05227295,0,0,.052162108,5.7047455,-.0000000000000049519047)" d="M331.5625 172.10547C331.5625 172.13282 327.8789 163.5039 317.48829 165.14063 317.48829 165.17188 320.8828 173.46485 331.5625 172.10547" fill="#3c3c3c"/>
<path transform="matrix(.05227295,0,0,.052162108,5.7047455,-.0000000000000049519047)" d="M314.875 186.20313C314.8711 186.22657 311.16798 177.64063 300.7422 179.66016 300.7422 179.6836 304.14845 187.96094 314.875 186.20313" fill="#3c3c3c"/>
<path transform="matrix(.05227295,0,0,.052162108,5.7047455,-.0000000000000049519047)" d="M331.08204 188.82422C331.07814 188.84766 327.39845 180.27344 317.01173 182.03516 317.0078 182.0625 320.40235 190.32422 331.08204 188.82422" fill="#3c3c3c"/>
<path transform="matrix(.05227295,0,0,.052162108,5.7047455,-.0000000000000049519047)" d="M346.01173 168.3086C346.01564 168.28907 336.17579 166.46094 336.3672 175.9961 336.3711 175.97657 345.98439 177.88672 346.01173 168.3086" fill="#3c3c3c"/>
<path transform="matrix(.05227295,0,0,.052162108,5.7047455,-.0000000000000049519047)" d="M348.47657 184.38672C348.47657 184.40235 341.11329 177.28907 333.67189 182.9336 333.67189 182.95313 340.72657 189.78907 348.47657 184.38672" fill="#3c3c3c"/>
<path transform="matrix(.05227295,0,0,.052162108,5.7047455,-.0000000000000049519047)" d="M346.51564 155.01172C346.51954 155.01953 338.2578 148.5586 332.125 155.22657 332.125 155.23828 340.08595 161.45703 346.51564 155.01172" fill="#3c3c3c"/>
<path transform="matrix(.05227295,0,0,.052162108,5.7047455,-.0000000000000049519047)" d="M287.1211 162.27344C287.1211 162.29297 281.76564 154.1914 272.1914 158.26953 272.1914 158.29297 277.22657 166.09766 287.1211 162.27344" fill="#3c3c3c"/>
<path transform="matrix(.05227295,0,0,.052162108,5.7047455,-.0000000000000049519047)" d="M297.6797 159.2539C297.6797 159.27344 292.35939 151.10938 282.78126 154.98438 282.78126 155.00782 287.78517 162.86328 297.6797 159.2539" fill="#3c3c3c"/>
<path transform="matrix(.05227295,0,0,.052162108,5.7047455,-.0000000000000049519047)" d="M306.2578 153.96094C306.2578 153.98047 301.4453 146.53125 292.76954 149.875 292.76954 149.89844 297.30079 157.07032 306.2578 153.96094" fill="#3c3c3c"/>
<path transform="matrix(.05227295,0,0,.052162108,5.7047455,-.0000000000000049519047)" d="M309.625 145.83594C309.625 145.83985 304.10157 141.53516 299.6836 146.1836 299.6875 146.1875 304.98829 150.39063 309.625 145.83594" fill="#3c3c3c"/>
<path transform="matrix(.05227295,0,0,.052162108,5.7047455,-.0000000000000049519047)" d="M286.4336 133.67188C286.4336 133.63282 275.20314 137.14453 281.54689 149.05078 281.54689 149.01172 292.64845 145.94922 286.4336 133.67188" fill="#3c3c3c"/>
<path transform="matrix(.05227295,0,0,.052162108,5.7047455,-.0000000000000049519047)" d="M295.79298 130.67578C295.79298 130.64844 286.7461 133.46485 292.0664 143.15235 292.0664 143.1289 301.01564 140.66016 295.79298 130.67578" fill="#3c3c3c"/>
<path transform="matrix(.05227295,0,0,.052162108,5.7047455,-.0000000000000049519047)" d="M274.6172 137.60157C274.6172 137.57813 265.53907 140.7539 270.89064 150.34766 270.89064 150.32422 279.875 147.5039 274.6172 137.60157" fill="#3c3c3c"/>
<path transform="matrix(.05227295,0,0,.052162108,5.7047455,-.0000000000000049519047)" d="M235.8711 70.82422C235.86719 70.81641 228.875 76.96094 237.4336 84.65234 237.42969 84.64453 244.46875 78.890628 235.8711 70.82422" fill="#3c3c3c"/>
<path transform="matrix(.05227295,0,0,.052162108,5.7047455,-.0000000000000049519047)" d="M217.22266 90.96875C217.21875 90.96484 210.23438 97.375 218.80469 104.80078 218.80469 104.796878 225.83203 98.76172 217.22266 90.96875" fill="#3c3c3c"/>
<path transform="matrix(.05227295,0,0,.052162108,5.7047455,-.0000000000000049519047)" d="M241.58594 56.35547C241.58203 56.34375 232.59766 64.265628 243.78907 74.28906 243.78516 74.27734 252.82813 66.88672 241.58594 56.35547" fill="#3c3c3c"/>
<path transform="matrix(.05227295,0,0,.052162108,5.7047455,-.0000000000000049519047)" d="M245.01172 89.71484C245.01563 89.71875 255.53907 97.31641 264.17189 88.24609 264.17579 88.25391 254.11719 80.23828 245.01172 89.71484" fill="#3c3c3c"/>
<path transform="matrix(.05227295,0,0,.052162108,5.7047455,-.0000000000000049519047)" d="M219.28516 149.78125C219.28907 149.71875 236.47266 146.90235 231.83203 129.59766 231.83594 129.53125 214.91407 131.94532 219.28516 149.78125" fill="#3c3c3c"/>
<path transform="matrix(.05227295,0,0,.052162108,5.7047455,-.0000000000000049519047)" d="M294.53126 102.94531C294.54298 102.89453 311.8203 108.66406 315.4453 92.92578 315.46095 92.87891 298.6797 86.421878 294.53126 102.94531" fill="#3c3c3c"/>
<path transform="matrix(.05227295,0,0,.052162108,5.7047455,-.0000000000000049519047)" d="M308.09767 87.38672C308.11329 87.296878 325.4297 89.14844 323.01564 71.96484 323.02735 71.875 306.02735 69.546878 308.09767 87.38672" fill="#3c3c3c"/>
<path transform="matrix(.05227295,0,0,.052162108,5.7047455,-.0000000000000049519047)" d="M301.4414 141.41016C301.44923 141.33203 318.17579 139.9336 312.66017 122.703128 312.67189 122.625 296.17189 123.61328 301.4414 141.41016" fill="#3c3c3c"/>
<path transform="matrix(.05227295,0,0,.052162108,5.7047455,-.0000000000000049519047)" d="M328.8711 130.95313C328.8789 130.90625 341.16798 130.52735 337.1211 117.77734 337.1289 117.73047 325.01173 117.80859 328.8711 130.95313" fill="#3c3c3c"/>
<path transform="matrix(.05227295,0,0,.052162108,5.7047455,-.0000000000000049519047)" d="M306.6875 120.75C306.6914 120.703128 319.0703 119.890628 314.9922 107.078128 314.9961 107.03125 302.78907 107.546878 306.6875 120.75" fill="#3c3c3c"/>
<path transform="matrix(.05227295,0,0,.052162108,5.7047455,-.0000000000000049519047)" d="M345.29689 131.6211C345.3086 131.53516 359.9297 128.96485 351.5625 112.703128 351.57423 112.61719 337.05079 114.921878 345.29689 131.6211" fill="#3c3c3c"/>
<path transform="matrix(.05227295,0,0,.052162108,5.7047455,-.0000000000000049519047)" d="M286.28126 62.4375C286.28126 62.382814 299.46485 55.85547 287.78126 40.640626 287.78126 40.585939 274.61329 46.86328 286.28126 62.4375" fill="#3c3c3c"/>
<path transform="matrix(.05227295,0,0,.052162108,5.7047455,-.0000000000000049519047)" d="M224.51953 23.347657C224.51953 23.300782 236.88672 21.4375 233.1836 8.953125 233.1875 8.90625 221.00782 10.5078129 224.51953 23.347657" fill="#3c3c3c"/>
<path transform="matrix(.05227295,0,0,.052162108,5.7047455,-.0000000000000049519047)" d="M257.45314 29.734375C257.4453 29.746094 263.4336 20.753907 250.78125 13.046875 250.77735 13.058594 244.65625 21.695313 257.45314 29.734375" fill="#3c3c3c"/>
<path transform="matrix(.05227295,0,0,.052162108,5.7047455,-.0000000000000049519047)" d="M265.76564 89.49609C265.77735 89.44141 283.1875 94.52734 286.82814 78.35156 286.83985 78.296878 269.91017 72.55859 265.76564 89.49609" fill="#3c3c3c"/>
<path transform="matrix(.05227295,0,0,.052162108,5.7047455,-.0000000000000049519047)" d="M251.36719 78.48047C251.36719 78.484378 261.11329 85.64844 269.11329 77.36719 269.1172 77.375 259.80079 69.84375 251.36719 78.48047" fill="#3c3c3c"/>
<path transform="matrix(.05227295,0,0,.052162108,5.7047455,-.0000000000000049519047)" d="M258.15235 68.57422C258.15626 68.56641 268.8203 74.69531 275.125 65.38672 275.1289 65.38672 264.8711 58.871095 258.15235 68.57422" fill="#3c3c3c"/>
<path transform="matrix(.05227295,0,0,.052162108,5.7047455,-.0000000000000049519047)" d="M288.2578 63.76172C288.26173 63.71875 276.52345 63.64453 278.89454 75.55078 278.89845 75.51172 290.40235 75.85156 288.2578 63.76172" fill="#3c3c3c"/>
<path transform="matrix(.05227295,0,0,.052162108,5.7047455,-.0000000000000049519047)" d="M317.8789 105.015628C317.89064 104.93359 334.96876 107.10547 332.41407 90.25781 332.4297 90.171878 315.66407 87.52734 317.8789 105.015628" fill="#3c3c3c"/>
<path transform="matrix(.05227295,0,0,.052162108,5.7047455,-.0000000000000049519047)" d="M322.42579 115.390628C322.4375 115.35156 338.8125 121.5 341.8086 106.75 341.82423 106.71094 325.92189 99.91016 322.42579 115.390628" fill="#3c3c3c"/>
<path transform="matrix(.05227295,0,0,.052162108,5.7047455,-.0000000000000049519047)" d="M263.26954 58.746095C263.27345 58.73828 273.9375 64.99219 280.23829 55.796876 280.2422 55.79297 269.9922 49.152345 263.26954 58.746095" fill="#3c3c3c"/>
<path transform="matrix(.05227295,0,0,.052162108,5.7047455,-.0000000000000049519047)" d="M233.125 150.29297C233.125 150.27735 223 148.16797 220.92969 158.11328 220.9336 158.10157 230.76172 160.3125 233.125 150.29297" fill="#3c3c3c"/>
<path transform="matrix(.05227295,0,0,.052162108,5.7047455,-.0000000000000049519047)" d="M217.30469 178.38672C217.3086 178.36719 229.19922 181.23047 232.3789 169.6875 232.38282 169.66407 220.82422 166.46875 217.30469 178.38672" fill="#3c3c3c"/>
<path transform="matrix(.05227295,0,0,.052162108,5.7047455,-.0000000000000049519047)" d="M217.78907 187.7539C217.79297 187.74219 229.46875 192.28907 234.84375 181.09375 234.84375 181.08594 223.55078 176.1914 217.78907 187.7539" fill="#3c3c3c"/>
<path transform="matrix(.05227295,0,0,.052162108,5.7047455,-.0000000000000049519047)" d="M218.8125 167.40625C218.8164 167.39063 229.0039 169.83985 231.67188 159.95313 231.67578 159.9375 221.77735 157.21875 218.8125 167.40625" fill="#3c3c3c"/>
<path transform="matrix(.05227295,0,0,.052162108,5.7047455,-.0000000000000049519047)" d="M278.73829 94.046878C278.7422 94.03516 269.46095 89.171878 264.82814 97.671878 264.83204 97.66406 273.79298 102.421878 278.73829 94.046878" fill="#3c3c3c"/>
<path transform="matrix(.05227295,0,0,.052162108,5.7047455,-.0000000000000049519047)" d="M262.6172 107.68359C262.6211 107.68359 271.69923 112.97656 277.25 104.98047 277.2539 104.98047 268.52345 99.40625 262.6172 107.68359" fill="#3c3c3c"/>
<path transform="matrix(.05227295,0,0,.052162108,5.7047455,-.0000000000000049519047)" d="M287.1875 111.20703C287.1914 111.20703 296.22267 116.78906 301.7461 109.12109 301.75 109.125 293.07814 103.25391 287.1875 111.20703" fill="#3c3c3c"/>
<path transform="matrix(.05227295,0,0,.052162108,5.7047455,-.0000000000000049519047)" d="M282.96876 118.20703C282.97267 118.21484 291.29689 124.578128 298.10157 117.74219 298.10157 117.75 290.14845 111.12109 282.96876 118.20703" fill="#3c3c3c"/>
<path transform="matrix(.05227295,0,0,.052162108,5.7047455,-.0000000000000049519047)" d="M277.8828 126.68359C277.88673 126.69141 286.21876 132.96875 293.02345 126.02344 293.02735 126.03125 285.0664 119.49609 277.8828 126.68359" fill="#3c3c3c"/>
<path transform="matrix(.05227295,0,0,.052162108,5.7047455,-.0000000000000049519047)" d="M241.32813 119.51172C241.32813 119.53125 240.96485 128.46875 252.54297 130.02344 252.53907 130.04688 253.1875 121.25 241.32813 119.51172" fill="#3c3c3c"/>
<path transform="matrix(.05227295,0,0,.052162108,5.7047455,-.0000000000000049519047)" d="M240.15235 130.3086C240.14844 130.33985 239.72266 140.94922 253.46875 142.75 253.46485 142.78125 254.23438 132.3164 240.15235 130.3086" fill="#3c3c3c"/>
<path transform="matrix(.05227295,0,0,.052162108,5.7047455,-.0000000000000049519047)" d="M259.72657 118.90625C259.73048 118.89453 269.60939 122.50391 272.9414 113.33984 272.9453 113.328128 263.3711 109.42969 259.72657 118.90625" fill="#3c3c3c"/>
<path transform="matrix(.05227295,0,0,.052162108,5.7047455,-.0000000000000049519047)" d="M0 149.78516C.0234375 149.88282-.15625 166.0625 21.898438 163.3711 21.921875 163.48047 22.4375 146.53907 0 149.78516" fill="#3c3c3c"/>
<path transform="matrix(.05227295,0,0,.052162108,5.7047455,-.0000000000000049519047)" d="M55.210939 72.91016C55.20703 72.9375 41.320314 86.94141 53.796876 99.37109 53.79297 99.39844 67.6875 86.08594 55.210939 72.91016" fill="#3c3c3c"/>
<path transform="matrix(.05227295,0,0,.052162108,5.7047455,-.0000000000000049519047)" d="M298.8711 61.507814C298.8711 61.433595 284.66798 69.64453 297.0078 87.26172 297.0078 87.18359 311.14454 79.88672 298.8711 61.507814" fill="#3c3c3c"/>
<path transform="matrix(.05227295,0,0,.052162108,5.7047455,-.0000000000000049519047)" d="M243.7539 20.050782C243.7461 19.996094 229.38672 29.667969 241.95313 46.578126 241.94922 46.523439 256.26564 37.746095 243.7539 20.050782" fill="#3c3c3c"/>
<path transform="matrix(.05227295,0,0,.052162108,5.7047455,-.0000000000000049519047)" d="M83.73047 42.746095C83.73047 42.746095 75.36719 50.26172 82.078128 58.128908 82.07422 58.128908 90.41016 51.023439 83.73047 42.746095" fill="#3c3c3c"/>
<path transform="matrix(.05227295,0,0,.052162108,5.7047455,-.0000000000000049519047)" d="M83.96094 35.08203C83.96484 35.117189 82.24609 44.660158 94.17969 45.683595 94.18359 45.722658 96.125 36.183595 83.96094 35.08203" fill="#3c3c3c"/>
<path transform="matrix(.05227295,0,0,.052162108,5.7047455,-.0000000000000049519047)" d="M98.64453 23.261719C98.640628 23.316407 88.08984 38.683595 104.703128 48.589845 104.703128 48.64453 115.42578 33.73828 98.64453 23.261719" fill="#3c3c3c"/>
<path transform="matrix(.05227295,0,0,.052162108,5.7047455,-.0000000000000049519047)" d="M14.832031 109.93359C14.847656 109.984378 17.136719 122.00781 34.496095 117.33984 34.51172 117.40234 32.55078 104.82422 14.832031 109.93359" fill="#3c3c3c"/>
<path transform="matrix(.05227295,0,0,.052162108,5.7047455,-.0000000000000049519047)" d="M80.765628 130.4336C80.77344 130.48438 80.140628 143.32032 96.80469 143.64063 96.8125 143.69532 97.78906 130.71485 80.765628 130.4336" fill="#3c3c3c"/>
<path transform="matrix(.05227295,0,0,.052162108,5.7047455,-.0000000000000049519047)" d="M68.45703 45.98828C68.453128 46.046876 55.992189 61.960939 71.875 72.92578 71.87109 72.984378 84.44922 57.617189 68.45703 45.98828" fill="#3c3c3c"/>
<path transform="matrix(.05227295,0,0,.052162108,5.7047455,-.0000000000000049519047)" d="M2.960938 171.85547C2.976562 171.88282 9.464844 185.69922 31.183594 177.04688 31.207032 177.09375 25.15625 162.36328 2.960938 171.85547" fill="#3c3c3c"/>
<path transform="matrix(.05227295,0,0,.052162108,5.7047455,-.0000000000000049519047)" d="M28.152344 144.83985C28.164063 144.94532 20.335938 161.84766 39.671876 167.74219 39.679689 167.84375 47.746095 150.91407 28.152344 144.83985" fill="#3c3c3c"/>
<path transform="matrix(.05227295,0,0,.052162108,5.7047455,-.0000000000000049519047)" d="M91.66406 156.98438C91.66797 157.00782 94.55469 167.35547 108.43359 163.28907 108.4375 163.3164 105.91016 152.78516 91.66406 156.98438" fill="#3c3c3c"/>
<path transform="matrix(.05227295,0,0,.052162108,5.7047455,-.0000000000000049519047)" d="M93.97266 79.08203C93.96875 79.08594 83.75781 87.80469 92.92969 96.64844 92.92578 96.65234 103.13281 88.40234 93.97266 79.08203" fill="#3c3c3c"/>
<path transform="matrix(.05227295,0,0,.052162108,5.7047455,-.0000000000000049519047)" d="M84.52734 178.80078C84.53516 178.82422 80.44141 166.72266 64.46094 172.92578 64.46875 172.95313 68.03516 184.46094 84.52734 178.80078" fill="#3c3c3c"/>
<path transform="matrix(.05227295,0,0,.052162108,5.7047455,-.0000000000000049519047)" d="M86.375 70.640628C86.37109 70.640628 77.47656 77.81641 84.74219 85.47656 84.73828 85.47656 93.609378 78.69922 86.375 70.640628" fill="#3c3c3c"/>
<path transform="matrix(.05227295,0,0,.052162108,5.7047455,-.0000000000000049519047)" d="M104.52344 59.585939C104.53125 59.61328 100.41406 49.48828 86.85547 55.57422 86.86328 55.60547 90.51953 65.19531 104.52344 59.585939" fill="#3c3c3c"/>
<path transform="matrix(.05227295,0,0,.052162108,5.7047455,-.0000000000000049519047)" d="M111.75781 71.609378C111.76172 71.63672 107.64844 61.42578 94.07422 67.28125 94.08203 67.3125 97.73828 77 111.75781 71.609378" fill="#3c3c3c"/>
<path transform="matrix(.05227295,0,0,.052162108,5.7047455,-.0000000000000049519047)" d="M119.328128 80.58203C119.33203 80.59375 116.453128 73.39844 106.91406 77.27734 106.91797 77.28906 109.48828 84.20703 119.328128 80.58203" fill="#3c3c3c"/>
<path transform="matrix(.05227295,0,0,.052162108,5.7047455,-.0000000000000049519047)" d="M128.33203 76.359378C128.32813 76.359378 135.03907 70.58984 128.45703 64.453128 128.45313 64.453128 121.75391 69.98047 128.33203 76.359378" fill="#3c3c3c"/>
<path transform="matrix(.05227295,0,0,.052162108,5.7047455,-.0000000000000049519047)" d="M139.33985 124.35547C139.33985 124.359378 146.03516 118.75 139.47266 112.43359 139.47266 112.43359 132.78125 117.78906 139.33985 124.35547" fill="#3c3c3c"/>
<path transform="matrix(.05227295,0,0,.052162108,5.7047455,-.0000000000000049519047)" d="M253.14844 153.3711C253.14844 153.38282 254.54297 145.77344 244.66407 143.48047 244.66407 143.48828 243.08985 150.82422 253.14844 153.3711" fill="#3c3c3c"/>
<path transform="matrix(.05227295,0,0,.052162108,5.7047455,-.0000000000000049519047)" d="M128.01563 88.84375C128.01563 88.85547 125.14453 81.60156 115.59375 85.32031 115.59375 85.33594 118.16406 92.31641 128.01563 88.84375" fill="#3c3c3c"/>
<path transform="matrix(.05227295,0,0,.052162108,5.7047455,-.0000000000000049519047)" d="M115.765628 61.621095C115.765628 61.625 121.31641 55.632814 114.49219 50.859376 114.48828 50.86328 108.91797 56.609376 115.765628 61.621095" fill="#3c3c3c"/>
<path transform="matrix(.05227295,0,0,.052162108,5.7047455,-.0000000000000049519047)" d="M122.93359 94.53516C122.93359 94.53906 126.91797 100.49609 135.10938 96.03906 135.11328 96.05078 131.40235 89.96875 122.93359 94.53516" fill="#3c3c3c"/>
<path transform="matrix(.05227295,0,0,.052162108,5.7047455,-.0000000000000049519047)" d="M120.82422 68.72656C120.82031 68.72266 127.83594 64.203128 122.99609 57.69922 122.99219 57.695314 116.03516 61.996095 120.82422 68.72656" fill="#3c3c3c"/>
<path transform="matrix(.05227295,0,0,.052162108,5.7047455,-.0000000000000049519047)" d="M68.32422 113.21875C68.31641 113.20703 57.195314 119.30859 62.347658 129.35157 62.339845 129.33985 73.33594 123.72656 68.32422 113.21875" fill="#3c3c3c"/>
<path transform="matrix(.05227295,0,0,.052162108,5.7047455,-.0000000000000049519047)" d="M73.80078 123.890628C73.796878 123.87891 62.664064 129.83203 67.81641 139.97657 67.80859 139.96485 78.81641 134.49219 73.80078 123.890628" fill="#3c3c3c"/>
<path transform="matrix(.05227295,0,0,.052162108,5.7047455,-.0000000000000049519047)" d="M76.01953 136.36719C76.01953 136.3711 68.02344 142.63672 74.421878 149.61328 74.421878 149.61719 82.38672 143.69532 76.01953 136.36719" fill="#3c3c3c"/>
<path transform="matrix(.05227295,0,0,.052162108,5.7047455,-.0000000000000049519047)" d="M41.472658 183.6289C41.476564 183.625 36.367189 177.28907 26.957032 184.0039 26.960938 184 31.6875 190.17188 41.472658 183.6289" fill="#3c3c3c"/>
<path transform="matrix(.05227295,0,0,.052162108,5.7047455,-.0000000000000049519047)" d="M66.88281 194.13282C66.88672 194.1289 61.75 187.47657 52.273439 193.8711 52.277345 193.8711 57.035158 200.34766 66.88281 194.13282" fill="#3c3c3c"/>
<path transform="matrix(.05227295,0,0,.052162108,5.7047455,-.0000000000000049519047)" d="M50.496095 176.8164C50.496095 176.83594 54.71875 168.35938 44.83203 165.89063 44.835939 165.91407 40.476564 174.01953 50.496095 176.8164" fill="#3c3c3c"/>
<path transform="matrix(.05227295,0,0,.052162108,5.7047455,-.0000000000000049519047)" d="M60.804689 181.11328C60.804689 181.13282 65.04297 172.6875 55.128908 170.01953 55.132814 170.04297 50.76172 178.1211 60.804689 181.11328" fill="#3c3c3c"/>
<path transform="matrix(.05227295,0,0,.052162108,5.7047455,-.0000000000000049519047)" d="M63.710939 156.58203C63.714845 156.59375 59.04297 147.5586 46.51172 154.3086 46.51953 154.32032 50.734376 162.97266 63.710939 156.58203" fill="#3c3c3c"/>
<path transform="matrix(.05227295,0,0,.052162108,5.7047455,-.0000000000000049519047)" d="M63.851564 101.96484C63.847658 101.95703 54.546876 107.546878 59.335939 115.796878 59.33203 115.78906 68.53906 110.60547 63.851564 101.96484" fill="#3c3c3c"/>
<path transform="matrix(.05227295,0,0,.052162108,5.7047455,-.0000000000000049519047)" d="M96.17578 185.64844C96.17969 185.64844 91.015628 179.23828 82.11719 185.3164 82.12109 185.3164 86.93359 191.5664 96.17578 185.64844" fill="#3c3c3c"/>
<path transform="matrix(.05227295,0,0,.052162108,5.7047455,-.0000000000000049519047)" d="M95.25 246.71094C95.25391 246.71094 90.10547 240.20313 81.23828 246.05469 81.24219 246.05078 86.04297 252.42969 95.25 246.71094" fill="#3c3c3c"/>
<path transform="matrix(.05227295,0,0,.052162108,5.7047455,-.0000000000000049519047)" d="M28.289063 134.90235C28.292969 134.92188 29.644532 143.22657 41.035158 139.64063 41.04297 139.66797 39.941408 131.19532 28.289063 134.90235" fill="#3c3c3c"/>
<path transform="matrix(.05227295,0,0,.052162108,5.7047455,-.0000000000000049519047)" d="M83.109378 59.54297C83.10547 59.527345 73.10547 64.921878 77.63672 73.98828 77.63281 73.97266 87.515628 69.015628 83.109378 59.54297" fill="#3c3c3c"/>
<path transform="matrix(.05227295,0,0,.052162108,5.7047455,-.0000000000000049519047)" d="M148.07032 188.33594C148.07032 188.33594 140.10547 180.82422 130.08985 189.26953 130.08985 189.26953 137.61328 196.59375 148.07032 188.33594" fill="#3c3c3c"/>
<path transform="matrix(.05227295,0,0,.052162108,5.7047455,-.0000000000000049519047)" d="M98.59375 202.83594C98.58984 202.83594 89.53906 208.85547 96.00781 217.29297 96.00781 217.29688 105.00391 211.65235 98.59375 202.83594" fill="#3c3c3c"/>
<path transform="matrix(.05227295,0,0,.052162108,5.7047455,-.0000000000000049519047)" d="M108.58594 205.73047C108.58594 205.73047 101.59766 210.29688 106.58594 216.88282 106.58203 216.88282 113.52734 212.60157 108.58594 205.73047" fill="#3c3c3c"/>
<path transform="matrix(.05227295,0,0,.052162108,5.7047455,-.0000000000000049519047)" d="M176.47657 144.23047C176.47266 144.21485 166.375 148.00782 170.875 158.03516 170.8711 158.01563 180.83985 154.60157 176.47657 144.23047" fill="#3c3c3c"/>
<path transform="matrix(.05227295,0,0,.052162108,5.7047455,-.0000000000000049519047)" d="M84.96875 147.61328C84.97266 147.625 88.65625 155.48438 99.5 150.73438 99.50391 150.7461 96.12891 142.73047 84.96875 147.61328" fill="#3c3c3c"/>
<path transform="matrix(.05227295,0,0,.052162108,5.7047455,-.0000000000000049519047)" d="M103.55469 169.04297C103.55859 169.0586 108.44531 179.42188 122.49219 173.64453 122.49609 173.66797 118.01953 163.0625 103.55469 169.04297" fill="#3c3c3c"/>
<path transform="matrix(.05227295,0,0,.052162108,5.7047455,-.0000000000000049519047)" d="M116.57422 180.0039C116.578128 180.01172 123.30469 189.60938 136.38672 182.30469 136.39063 182.32032 130.09766 172.45703 116.57422 180.0039" fill="#3c3c3c"/>
<path transform="matrix(.05227295,0,0,.052162108,5.7047455,-.0000000000000049519047)" d="M148.9375 176.6875C148.9336 176.6914 158.05078 168.30078 147.97266 159.52735 147.96875 159.53516 138.84375 167.5586 148.9375 176.6875" fill="#3c3c3c"/>
<path transform="matrix(.05227295,0,0,.052162108,5.7047455,-.0000000000000049519047)" d="M134.86328 170.08985C134.85938 170.10547 142.90625 160.67188 131.64453 153.25782 131.64453 153.26953 123.53906 162.30078 134.86328 170.08985" fill="#3c3c3c"/>
<path transform="matrix(.05227295,0,0,.052162108,5.7047455,-.0000000000000049519047)" d="M122.07422 161.28516C122.07422 161.29688 129.60157 152.91407 119.77734 146.1211 119.77344 146.13672 112.20703 154.15625 122.07422 161.28516" fill="#3c3c3c"/>
<path transform="matrix(.05227295,0,0,.052162108,5.7047455,-.0000000000000049519047)" d="M109.94922 152.66407C109.94922 152.67969 116.98047 143.8711 106.72266 137.82032 106.72266 137.83594 99.625 146.26953 109.94922 152.66407" fill="#3c3c3c"/>
<path transform="matrix(.05227295,0,0,.052162108,5.7047455,-.0000000000000049519047)" d="M129.80078 120.21484C129.79688 120.22656 138.95703 110.06641 126.99609 101.80469 126.99609 101.82031 117.78906 111.55859 129.80078 120.21484" fill="#3c3c3c"/>
<path transform="matrix(.05227295,0,0,.052162108,5.7047455,-.0000000000000049519047)" d="M114.91016 111.41016C114.90625 111.41797 124.75781 102.28516 114.44141 93.46875 114.44141 93.47656 104.59766 102.23047 114.91016 111.41016" fill="#3c3c3c"/>
<path transform="matrix(.05227295,0,0,.052162108,5.7047455,-.0000000000000049519047)" d="M102.8125 103.08984C102.80859 103.08984 112.67578 95.46094 104.50781 86.60156 104.50391 86.60156 94.69141 93.91406 102.8125 103.08984" fill="#3c3c3c"/>
<path transform="matrix(.05227295,0,0,.052162108,5.7047455,-.0000000000000049519047)" d="M332.48048 192.71485C332.47657 192.76172 336.7578 204.59375 321.91798 205.125 321.91407 205.17188 317.40626 193.3125 332.48048 192.71485" fill="#3c3c3c"/>
<path transform="matrix(.05227295,0,0,.052162108,5.7047455,-.0000000000000049519047)" d="M345.5078 191.04297C345.5039 191.07813 349.59767 201.03125 337.35157 201.6836 337.34767 201.71875 333.08204 191.78516 345.5078 191.04297" fill="#3c3c3c"/>
<path transform="matrix(.05227295,0,0,.052162108,5.7047455,-.0000000000000049519047)" d="M356.02345 186.0664C356.02345 186.09766 362.45704 195.5625 351.97657 198.53125 351.97267 198.5664 345.4453 189.2539 356.02345 186.0664" fill="#3c3c3c"/>
<path transform="matrix(.05227295,0,0,.052162108,5.7047455,-.0000000000000049519047)" d="M270.98439 199.0039C270.98048 199.04688 269.07423 185.99219 285.78517 187.35157 285.78126 187.39453 288.04298 199.8164 270.98439 199.0039" fill="#3c3c3c"/>
<path transform="matrix(.05227295,0,0,.052162108,5.7047455,-.0000000000000049519047)" d="M290.91017 203.22657C290.90235 203.27344 287.54689 190.73438 303.19923 190.84766 303.1953 190.89453 306.85157 202.8164 290.91017 203.22657" fill="#3c3c3c"/>
<path transform="matrix(.05227295,0,0,.052162108,5.7047455,-.0000000000000049519047)" d="M308.03517 204.54297C308.03517 204.58594 303.5586 193.2539 317.28126 192.17578 317.27735 192.21485 321.97267 203.01172 308.03517 204.54297" fill="#3c3c3c"/>
<path transform="matrix(.05227295,0,0,.052162108,5.7047455,-.0000000000000049519047)" d="M115.26172 141.38672C115.265628 141.36719 126.81641 148.41016 137.29688 136.40235 137.30078 136.38672 126.21094 128.92188 115.26172 141.38672" fill="#3c3c3c"/>
<path transform="matrix(.05227295,0,0,.052162108,5.7047455,-.0000000000000049519047)" d="M99.80859 133.90625C99.80859 133.88282 111.34375 140.61719 121.80078 128.39844 121.80469 128.3789 110.72266 121.21484 99.80859 133.90625" fill="#3c3c3c"/>
<path transform="matrix(.05227295,0,0,.052162108,5.7047455,-.0000000000000049519047)" d="M52.796876 164.33594C52.80078 164.33594 58.796876 173.2539 71.828128 165.58985 71.83594 165.59766 66.21875 156.36328 52.796876 164.33594" fill="#3c3c3c"/>
<path transform="matrix(.05227295,0,0,.052162108,5.7047455,-.0000000000000049519047)" d="M36.078126 190.35938C36.08203 190.33985 44.347658 197.4336 55.609376 187.6836 55.61328 187.67188 47.734376 180.28125 36.078126 190.35938" fill="#3c3c3c"/>
<path transform="matrix(.05227295,0,0,.052162108,5.7047455,-.0000000000000049519047)" d="M.347656 188.80078C.347656 188.77344 8.515625 195.21485 19.660157 185.07422 19.660157 185.05078 11.863281 178.29688 .347656 188.80078" fill="#3c3c3c"/>
<path transform="matrix(.05227295,0,0,.052162108,5.7047455,-.0000000000000049519047)" d="M90.91016 124.74609C90.91406 124.73047 99.73828 129.71094 107.72266 120.19922 107.72266 120.1875 99.25 114.921878 90.91016 124.74609" fill="#3c3c3c"/>
<path transform="matrix(.05227295,0,0,.052162108,5.7047455,-.0000000000000049519047)" d="M78.46484 114.70703C78.46875 114.703128 85.47266 121.734378 96.07031 113.55469 96.07422 113.55469 89.42969 106.21484 78.46484 114.70703" fill="#3c3c3c"/>
<path transform="matrix(.05227295,0,0,.052162108,5.7047455,-.0000000000000049519047)" d="M59.945314 222.64453C59.94922 222.67578 57.953126 234.01953 72.37109 234.51172 72.375 234.54297 74.64453 223.20703 59.945314 222.64453" fill="#3c3c3c"/>
<path transform="matrix(.05227295,0,0,.052162108,5.7047455,-.0000000000000049519047)" d="M114.73828 231.09375C114.73828 231.11328 116.82031 221.40625 104.79297 220.15235 104.796878 220.17578 102.484378 229.48047 114.73828 231.09375" fill="#3c3c3c"/>
<path transform="matrix(.05227295,0,0,.052162108,5.7047455,-.0000000000000049519047)" d="M66.49609 240.65235C66.5 240.63672 58.890626 235.0664 50.51172 243.51953 50.51172 243.5039 57.71875 249.05078 66.49609 240.65235" fill="#3c3c3c"/>
<path transform="matrix(.05227295,0,0,.052162108,5.7047455,-.0000000000000049519047)" d="M133.77735 222.92578C133.77344 222.9375 138.07813 215.8164 129.42188 211.90625 129.42188 211.91797 125.02344 218.7461 133.77735 222.92578" fill="#3c3c3c"/>
<path transform="matrix(.05227295,0,0,.052162108,5.7047455,-.0000000000000049519047)" d="M102.41016 233.70703C102.41016 233.73438 104.82422 222.5625 91.01172 221.30078 91.01172 221.32813 88.33594 232.00782 102.41016 233.70703" fill="#3c3c3c"/>
<path transform="matrix(.05227295,0,0,.052162108,5.7047455,-.0000000000000049519047)" d="M88.02344 235.14063C88.02344 235.17188 90.34766 224.3164 76.93359 223.3125 76.9375 223.33985 74.35156 233.70313 88.02344 235.14063" fill="#3c3c3c"/>
<path transform="matrix(.05227295,0,0,.052162108,5.7047455,-.0000000000000049519047)" d="M117.02734 215.51563C117.02734 215.53516 114.39844 224.65625 125.796878 226.71875 125.796878 226.73828 128.64063 217.76172 117.02734 215.51563" fill="#3c3c3c"/>
<path transform="matrix(.05227295,0,0,.052162108,5.7047455,-.0000000000000049519047)" d="M42.765626 140.10547C42.773439 140.14063 43.875 151.51172 59.171876 147.91016 59.179689 147.94922 58.402345 136.3125 42.765626 140.10547" fill="#3c3c3c"/>
<path transform="matrix(.05227295,0,0,.052162108,5.7047455,-.0000000000000049519047)" d="M39.984376 128.6211C39.992189 128.65625 41.44922 139.23438 55.835939 135.2539 55.84375 135.28907 54.695314 124.44531 39.984376 128.6211" fill="#3c3c3c"/>
<path transform="matrix(.05227295,0,0,.052162108,5.7047455,-.0000000000000049519047)" d="M38.35547 116.69141C38.359376 116.71875 39.671876 126.21875 52.597658 122.47656 52.60547 122.51172 51.57422 112.796878 38.35547 116.69141" fill="#3c3c3c"/>
<path transform="matrix(.05227295,0,0,.052162108,5.7047455,-.0000000000000049519047)" d="M42.460939 101.546878C42.464845 101.56641 40 109.49609 49.648439 109.953128 49.652345 109.98047 52.26953 102.09766 42.460939 101.546878" fill="#3c3c3c"/>
<path transform="matrix(.05227295,0,0,.052162108,5.7047455,-.0000000000000049519047)" d="M8.980469 126.93359C8.984375 126.94141 11.386719 133.50782 20.996094 128.84766 21 128.85547 18.828125 122.11719 8.980469 126.93359" fill="#3c3c3c"/>
<path transform="matrix(.05227295,0,0,.052162108,5.7047455,-.0000000000000049519047)" d="M69.61719 106.24219C69.61719 106.234378 76.61328 113.109378 87.19141 104.765628 87.19531 104.765628 80.55469 97.57031 69.61719 106.24219" fill="#3c3c3c"/>
<path transform="matrix(.05227295,0,0,.052162108,5.7047455,-.0000000000000049519047)" d="M64.07422 93.03906C64.078128 93.0625 66.97656 102.20703 79.70703 97.38672 79.71484 97.41406 77.12891 88.01172 64.07422 93.03906" fill="#3c3c3c"/>
<path transform="matrix(.05227295,0,0,.052162108,5.7047455,-.0000000000000049519047)" d="M25.441407 90.78516C25.453125 90.86328 19.65625 105.02344 36.414064 106.76172 36.42578 106.84375 42.4375 92.60547 25.441407 90.78516" fill="#3c3c3c"/>
<path transform="matrix(.05227295,0,0,.052162108,5.7047455,-.0000000000000049519047)" d="M38.75 74.84375C38.753908 74.88281 30.363282 86.265628 42.45703 91.67969 42.45703 91.71875 50.941408 80.62109 38.75 74.84375" fill="#3c3c3c"/>
<path transform="matrix(.05227295,0,0,.052162108,5.7047455,-.0000000000000049519047)" d="M62.48828 81.94922C62.492189 81.96875 63.88672 89.640628 74.30078 86.51172 74.30469 86.53125 73.15625 78.73047 62.48828 81.94922" fill="#3c3c3c"/>
<path transform="matrix(.05227295,0,0,.052162108,5.7047455,-.0000000000000049519047)" d="M264.82814 227.26953C264.82423 227.27735 267.8047 219.86328 279.54689 224.1211 279.54689 224.1289 276.92579 231.28516 264.82814 227.26953" fill="#3c3c3c"/>
<path transform="matrix(.05227295,0,0,.052162108,5.7047455,-.0000000000000049519047)" d="M273.83595 236.47266C273.83595 236.49219 273.76173 228.41407 286.03517 229.15625 286.03126 229.17578 286.39845 236.89063 273.83595 236.47266" fill="#3c3c3c"/>
<path transform="matrix(.05227295,0,0,.052162108,5.7047455,-.0000000000000049519047)" d="M286.0547 238.51563C286.0547 238.53516 284.22267 230.5 296.14845 229.28125 296.14845 229.30469 298.22267 236.94922 286.0547 238.51563" fill="#3c3c3c"/>
<path transform="matrix(.05227295,0,0,.052162108,5.7047455,-.0000000000000049519047)" d="M298.73439 239.63672C298.73048 239.66016 295.59767 231.83594 306.95314 229.19922 306.95314 229.22657 310.28126 236.64844 298.73439 239.63672" fill="#3c3c3c"/>
<path transform="matrix(.05227295,0,0,.052162108,5.7047455,-.0000000000000049519047)" d="M311.08595 238.02344C311.08595 238.05078 308.96095 230.08985 320.73439 228.8711 320.73048 228.89844 323.08985 236.45313 311.08595 238.02344" fill="#3c3c3c"/>
<path transform="matrix(.05227295,0,0,.052162108,5.7047455,-.0000000000000049519047)" d="M323.0078 239.08985C323 239.125 321.95314 229.27735 336.8789 229.92188 336.8711 229.96094 338.27345 239.25 323.0078 239.08985" fill="#3c3c3c"/>
<path transform="matrix(.05227295,0,0,.052162108,5.7047455,-.0000000000000049519047)" d="M293.41407 263.5664C293.41407 263.52735 305.02735 257.41017 316.6211 271.77735 316.6172 271.73829 305.60157 278 293.41407 263.5664" fill="#3c3c3c"/>
<path transform="matrix(.05227295,0,0,.052162108,5.7047455,-.0000000000000049519047)" d="M254.42578 224.58985C254.42969 224.60547 249.67188 215.53125 260.01564 208.79688 260.01954 208.82032 264.89454 217.4375 254.42578 224.58985" fill="#3c3c3c"/>
<path transform="matrix(.05227295,0,0,.052162108,5.7047455,-.0000000000000049519047)" d="M245.07422 230.14063C245.07422 230.14844 238.11719 223.10157 245.8711 212.8125 245.8711 212.82032 252.83985 219.45703 245.07422 230.14063" fill="#3c3c3c"/>
<path transform="matrix(.05227295,0,0,.052162108,5.7047455,-.0000000000000049519047)" d="M289.42579 222.9961C289.4297 222.96875 276.33595 223.08594 277.02735 209.6875 277.03126 209.65625 289.84767 209.35547 289.42579 222.9961" fill="#3c3c3c"/>
<path transform="matrix(.05227295,0,0,.052162108,5.7047455,-.0000000000000049519047)" d="M305.77735 224.33594C305.78517 224.3086 292.72267 224.1836 293.42579 210.90625 293.4297 210.875 306.21095 210.83203 305.77735 224.33594" fill="#3c3c3c"/>
</g>
<g clip-path="url(#clip_8)">
<path transform="matrix(.05227295,0,0,.052162108,5.7047455,-.0000000000000049519047)" d="M372.4297 188.6836C372.42189 188.73047 376.3672 199.77735 361.41407 198.3164 361.40626 198.36719 357.2461 187.17578 372.4297 188.6836" fill="#3c3c3c"/>
</g>
<g clip-path="url(#clip_9)">
<path transform="matrix(.05227295,0,0,.052162108,5.7047455,-.0000000000000049519047)" d="M369.32814 168.55469C369.3125 168.6289 371.29689 183.30469 350.9336 177.88282 350.91407 177.96094 348.6172 162.7461 369.32814 168.55469" fill="#3c3c3c"/>
<path transform="matrix(.05227295,0,0,.052162108,5.7047455,-.0000000000000049519047)" d="M318.5664 223.48047C318.5703 223.46485 308.59767 223.1875 309.14064 213.1289 309.14454 213.10547 318.89845 213.23438 318.5664 223.48047" fill="#3c3c3c"/>
<path transform="matrix(.05227295,0,0,.052162108,5.7047455,-.0000000000000049519047)" d="M334.78907 220.25C334.78907 220.22266 324.65626 222.05469 322.2422 211.96094 322.2461 211.9336 332.10157 209.98047 334.78907 220.25" fill="#3c3c3c"/>
<path transform="matrix(.05227295,0,0,.052162108,5.7047455,-.0000000000000049519047)" d="M347.32814 218.40625C347.33204 218.3789 337.23048 220.0039 334.82423 209.95703 334.82814 209.92969 344.64845 208.1875 347.32814 218.40625" fill="#3c3c3c"/>
<path transform="matrix(.05227295,0,0,.052162108,5.7047455,-.0000000000000049519047)" d="M360.5547 212.33594C360.5586 212.30469 352.03907 216.94532 345.48439 208.39844 345.48439 208.3711 353.6875 203.59766 360.5547 212.33594" fill="#3c3c3c"/>
<path transform="matrix(.05227295,0,0,.052162108,5.7047455,-.0000000000000049519047)" d="M304.7422 255.71485C304.7461 255.69532 294.2461 257.3086 292.8711 247.10938 292.8711 247.08594 303.10548 245.34766 304.7422 255.71485" fill="#3c3c3c"/>
<path transform="matrix(.05227295,0,0,.052162108,5.7047455,-.0000000000000049519047)" d="M294.0703 272.7539C294.07423 272.73439 283.2422 273.1797 283.5625 263.0078 283.5625 262.9922 294.15626 262.40235 294.0703 272.7539" fill="#3c3c3c"/>
<path transform="matrix(.05227295,0,0,.052162108,5.7047455,-.0000000000000049519047)" d="M278.1211 269.58985C278.1211 269.58204 267.48439 266.60548 272.02345 257.45314 272.02345 257.4453 282.51954 260.21095 278.1211 269.58985" fill="#3c3c3c"/>
<path transform="matrix(.05227295,0,0,.052162108,5.7047455,-.0000000000000049519047)" d="M264.41017 263.90626C264.41407 263.91407 255.32422 257.95314 263.33985 250.9336 263.33985 250.9414 272.39454 256.6172 264.41017 263.90626" fill="#3c3c3c"/>
<path transform="matrix(.05227295,0,0,.052162108,5.7047455,-.0000000000000049519047)" d="M250.48438 257.67189C250.48438 257.6875 245.53125 248.72657 256.70314 246.23828 256.70314 246.25782 261.79298 254.8711 250.48438 257.67189" fill="#3c3c3c"/>
<path transform="matrix(.05227295,0,0,.052162108,5.7047455,-.0000000000000049519047)" d="M292.4375 254.47266C292.4375 254.44532 281.92189 256.19923 280.53517 245.94922 280.53907 245.92969 290.78907 244.04688 292.4375 254.47266" fill="#3c3c3c"/>
<path transform="matrix(.05227295,0,0,.052162108,5.7047455,-.0000000000000049519047)" d="M317.73048 254.09375C317.73439 254.07032 307.2578 255.51953 305.88673 245.3789 305.89064 245.35157 316.10157 243.78516 317.73048 254.09375" fill="#3c3c3c"/>
<path transform="matrix(.05227295,0,0,.052162108,5.7047455,-.0000000000000049519047)" d="M331.9336 248.17969C331.9336 248.15235 322.69923 252.70313 316.9336 244.00782 316.9336 243.98438 325.84376 239.32422 331.9336 248.17969" fill="#3c3c3c"/>
<path transform="matrix(.05227295,0,0,.052162108,5.7047455,-.0000000000000049519047)" d="M369.2578 206.17969C369.2578 206.16016 362.9453 210.3125 356.9453 203.86328 356.9453 203.84766 363 199.58203 369.2578 206.17969" fill="#3c3c3c"/>
<path transform="matrix(.05227295,0,0,.052162108,5.7047455,-.0000000000000049519047)" d="M4.6875 197.30078C4.6914064 197.26563 14.933594 208.13672 32.453126 195.10547 32.460939 195.08203 22.699219 183.58985 4.6875 197.30078" fill="#3c3c3c"/>
<path transform="matrix(.05227295,0,0,.052162108,5.7047455,-.0000000000000049519047)" d="M34.695314 232.98047C34.69922 232.96094 43.1875 243.26172 58.421876 233.14453 58.42578 233.13282 50.402345 222.47657 34.695314 232.98047" fill="#3c3c3c"/>
<path transform="matrix(.05227295,0,0,.052162108,5.7047455,-.0000000000000049519047)" d="M53 252.5039C53 252.48047 62.722658 261.5703 76.07031 250.78125 76.07422 250.76172 66.828128 241.39453 53 252.5039" fill="#3c3c3c"/>
<path transform="matrix(.05227295,0,0,.052162108,5.7047455,-.0000000000000049519047)" d="M46.05078 216.3711C46.046876 216.33594 58.4375 216.94922 61.65625 204.35157 61.652345 204.3164 49.601564 203.49219 46.05078 216.3711" fill="#3c3c3c"/>
<path transform="matrix(.05227295,0,0,.052162108,5.7047455,-.0000000000000049519047)" d="M81.15234 217.1914C81.14844 217.17578 93.40625 212.76172 89.52734 200.96094 89.52344 200.94532 77.46094 205.08594 81.15234 217.1914" fill="#3c3c3c"/>
<path transform="matrix(.05227295,0,0,.052162108,5.7047455,-.0000000000000049519047)" d="M63.42578 219.84375C63.41797 219.8125 77.671878 217.74219 75.44922 204.25 75.44141 204.21875 61.464845 206.07813 63.42578 219.84375" fill="#3c3c3c"/>
<path transform="matrix(.05227295,0,0,.052162108,5.7047455,-.0000000000000049519047)" d="M32.589845 209.8711C32.589845 209.84375 42.01172 213.97657 49.54297 203.66797 49.54297 203.64453 40.472658 199.30078 32.589845 209.8711" fill="#3c3c3c"/>
<path transform="matrix(.05227295,0,0,.052162108,5.7047455,-.0000000000000049519047)" d="M23.992188 204.67969C23.992188 204.66407 30.960938 208.57032 37.820314 200.66797 37.820314 200.65625 31.140625 196.58594 23.992188 204.67969" fill="#3c3c3c"/>
<path transform="matrix(.05227295,0,0,.052162108,5.7047455,-.0000000000000049519047)" d="M69.18359 259.8828C69.18359 259.8711 76.21094 264.5039 83.12891 256.9961 83.12891 256.98829 76.40625 252.23047 69.18359 259.8828" fill="#3c3c3c"/>
<path transform="matrix(.05227295,0,0,.052162108,5.7047455,-.0000000000000049519047)" d="M113.921878 263.3203C113.91406 263.3164 125.46484 257.78126 119.42578 246.51172 119.421878 246.5039 108.00781 251.71875 113.921878 263.3203" fill="#3c3c3c"/>
<path transform="matrix(.05227295,0,0,.052162108,5.7047455,-.0000000000000049519047)" d="M131.91797 257.61329C131.91407 257.6172 142.99219 248.98828 131.5664 239.65235 131.5625 239.66016 120.49219 247.89844 131.91797 257.61329" fill="#3c3c3c"/>
<path transform="matrix(.05227295,0,0,.052162108,5.7047455,-.0000000000000049519047)" d="M97.00391 264.76173C97.00391 264.75 108.58594 263.42189 108.05859 251.89063 108.05859 251.875 96.72266 252.96485 97.00391 264.76173" fill="#3c3c3c"/>
<path transform="matrix(.05227295,0,0,.052162108,5.7047455,-.0000000000000049519047)" d="M85.30859 264.89064C85.30469 264.8789 94.59375 264.5547 95.234378 255.26563 95.234378 255.25782 86.171878 255.39453 85.30859 264.89064" fill="#3c3c3c"/>
</g>
</g>
</g>
</g>
</g>
</svg>
